<svg xmlns="http://www.w3.org/2000/svg" xmlns:xlink="http://www.w3.org/1999/xlink" viewBox="0 0 524.01 324.45"><defs><style>.cls-1,.cls-2{stroke:#231f20;}.cls-1,.cls-11,.cls-13,.cls-2{stroke-miterlimit:10;}.cls-1{fill:url(#Orange_Yellow);}.cls-2{fill:url(#Fading_Sky);}.cls-3{font-size:18px;}.cls-15,.cls-3{fill:#231f20;font-family:MyriadPro-Regular, Myriad Pro;}.cls-4{letter-spacing:-0.01em;}.cls-5{letter-spacing:0em;}.cls-6{letter-spacing:0em;}.cls-7{letter-spacing:0em;}.cls-8{letter-spacing:-0.01em;}.cls-9{letter-spacing:0em;}.cls-10{letter-spacing:-0.01em;}.cls-11,.cls-13{fill:none;stroke-width:10px;}.cls-11{stroke:#58595b;}.cls-12{fill:#58595b;}.cls-13{stroke:#6d6e71;}.cls-14{fill:#6d6e71;}.cls-15{font-size:25px;}.cls-16{letter-spacing:-0.01em;}.cls-17{letter-spacing:-0.01em;}.cls-18{letter-spacing:0em;}</style><linearGradient id="Orange_Yellow" x1="164.02" y1="73.5" x2="361.02" y2="73.5" gradientUnits="userSpaceOnUse"><stop offset="0" stop-color="#fff33b"/><stop offset="0.04" stop-color="#fee72e"/><stop offset="0.12" stop-color="#fed51b"/><stop offset="0.2" stop-color="#fdca10"/><stop offset="0.28" stop-color="#fdc70c"/><stop offset="0.67" stop-color="#f3903f"/><stop offset="0.89" stop-color="#ed683c"/><stop offset="1" stop-color="#e93e3a"/></linearGradient><linearGradient id="Fading_Sky" x1="204.2" y1="231.78" x2="320.83" y2="231.78" gradientUnits="userSpaceOnUse"><stop offset="0" stop-color="#2484c6"/><stop offset="1" stop-color="#2484c6" stop-opacity="0"/></linearGradient></defs><g id="Layer_2" data-name="Layer 2"><rect class="cls-1" x="164.02" y="0.5" width="197" height="146" rx="25"/><rect class="cls-2" x="204.2" y="180.25" width="116.64" height="103.06" rx="25"/><text class="cls-3" transform="translate(182.61 73.3)"><tspan class="cls-4">C</tspan><tspan x="10.24" y="0">ombin</tspan><tspan class="cls-5" x="59.58" y="0">a</tspan><tspan class="cls-6" x="68.18" y="0">tional </tspan><tspan class="cls-7" x="114.96" y="0">C</tspan><tspan x="125.35" y="0">i</tspan><tspan class="cls-8" x="129.56" y="0">r</tspan><tspan x="135.27" y="0">cuit</tspan></text><text class="cls-3" transform="translate(244.8 239.19)"><tspan class="cls-9">D</tspan><tspan x="12.06" y="0">el</tspan><tspan class="cls-10" x="25.33" y="0">a</tspan><tspan x="33.86" y="0">y</tspan></text><line class="cls-11" x1="361.02" y1="73.2" x2="501.05" y2="73.45"/><polygon class="cls-12" points="496.36 89.39 524.01 73.49 496.41 57.48 496.36 89.39"/><line class="cls-11" x1="3.02" y1="118.16" x2="143.05" y2="118.4"/><polygon class="cls-12" points="138.35 134.35 166.01 118.44 138.41 102.44 138.35 134.35"/><line class="cls-11" x1="0.01" y1="44.06" x2="140.04" y2="44.3"/><polygon class="cls-12" points="135.35 60.25 163.01 44.34 135.4 28.34 135.35 60.25"/><polyline class="cls-13" points="458.01 78.3 458.01 231.78 338.71 231.78"/><polygon class="cls-14" points="341.48 252.43 341.48 211.12 320.83 231.78 341.48 252.43"/><polyline class="cls-11" points="89.02 118.3 89.02 231.78 204.2 231.78"/><text class="cls-15" transform="translate(183.26 318.2)">Block dia<tspan class="cls-16" x="93.4" y="0">g</tspan><tspan class="cls-17" x="107.22" y="0">r</tspan><tspan class="cls-18" x="115.27" y="0">am</tspan></text></g></svg>