<svg id="Char_Table_NAND" data-name="Char Table NAND" xmlns="http://www.w3.org/2000/svg" viewBox="0 0 382.76 220.4"><defs><style>.cls-1{fill:none;}.cls-1,.cls-2{stroke:#231f20;}.cls-1,.cls-16,.cls-2{stroke-miterlimit:10;}.cls-2{font-size:12px;fill:#231f20;stroke-width:0.5px;}.cls-16,.cls-2{font-family:MyriadPro-Regular, Myriad Pro;}.cls-3{letter-spacing:-0.01em;}.cls-4{letter-spacing:0em;}.cls-5{letter-spacing:-0.01em;}.cls-6{letter-spacing:0.01em;}.cls-7{letter-spacing:-0.01em;}.cls-8{letter-spacing:0em;}.cls-9{letter-spacing:-0.04em;}.cls-10{letter-spacing:-0.06em;}.cls-11{letter-spacing:-0.01em;}.cls-12{letter-spacing:0em;}.cls-13{letter-spacing:-0.02em;}.cls-14{letter-spacing:0.01em;}.cls-15{letter-spacing:0em;}.cls-16{font-size:16px;fill:#fbb040;stroke:#fbb040;}.cls-17{font-size:14px;fill:#f7941d;font-family:ScriptMTBold, Script MT Bold;}.cls-18{letter-spacing:-0.04em;}.cls-19{letter-spacing:-0.03em;}.cls-20{letter-spacing:-0.12em;}.cls-21{letter-spacing:-0.04em;}</style></defs><rect class="cls-1" x="0.5" y="20.58" width="76.35" height="22.3"/><rect class="cls-1" x="76.85" y="20.58" width="76.35" height="22.3"/><rect class="cls-1" x="153.2" y="20.58" width="76.35" height="22.3"/><rect class="cls-1" x="229.55" y="20.58" width="76.35" height="22.3"/><rect class="cls-1" x="305.91" y="20.58" width="76.35" height="22.3"/><rect class="cls-1" x="0.5" y="42.87" width="76.35" height="22.3"/><rect class="cls-1" x="76.85" y="42.87" width="76.35" height="22.3"/><rect class="cls-1" x="153.2" y="42.87" width="76.35" height="22.3"/><rect class="cls-1" x="229.55" y="42.87" width="76.35" height="22.3"/><rect class="cls-1" x="305.91" y="42.87" width="76.35" height="22.3"/><rect class="cls-1" x="0.5" y="64.5" width="76.35" height="22.3"/><rect class="cls-1" x="76.85" y="64.5" width="76.35" height="22.3"/><rect class="cls-1" x="153.2" y="64.5" width="76.35" height="22.3"/><rect class="cls-1" x="229.55" y="64.5" width="76.35" height="22.3"/><rect class="cls-1" x="305.91" y="64.5" width="76.35" height="22.3"/><rect class="cls-1" x="0.5" y="86.79" width="76.35" height="22.3"/><rect class="cls-1" x="76.85" y="86.79" width="76.35" height="22.3"/><rect class="cls-1" x="153.2" y="86.79" width="76.35" height="22.3"/><rect class="cls-1" x="229.55" y="86.79" width="76.35" height="22.3"/><rect class="cls-1" x="305.91" y="86.79" width="76.35" height="22.3"/><rect class="cls-1" x="0.5" y="109.09" width="76.35" height="22.3"/><rect class="cls-1" x="76.85" y="109.09" width="76.35" height="22.3"/><rect class="cls-1" x="153.2" y="109.09" width="76.35" height="22.3"/><rect class="cls-1" x="229.55" y="109.09" width="76.35" height="22.3"/><rect class="cls-1" x="305.91" y="109.09" width="76.35" height="22.3"/><rect class="cls-1" x="0.5" y="131.39" width="76.35" height="22.3"/><rect class="cls-1" x="76.85" y="131.39" width="76.35" height="22.3"/><rect class="cls-1" x="153.2" y="131.39" width="76.35" height="22.3"/><rect class="cls-1" x="229.55" y="131.39" width="76.35" height="22.3"/><rect class="cls-1" x="305.91" y="131.39" width="76.35" height="22.3"/><rect class="cls-1" x="0.5" y="153.01" width="76.35" height="22.3"/><rect class="cls-1" x="76.85" y="153.01" width="76.35" height="22.3"/><rect class="cls-1" x="153.2" y="153.01" width="76.35" height="22.3"/><rect class="cls-1" x="229.55" y="153.01" width="76.35" height="22.3"/><rect class="cls-1" x="305.91" y="153.01" width="76.35" height="22.3"/><rect class="cls-1" x="0.5" y="175.31" width="76.35" height="22.3"/><rect class="cls-1" x="76.85" y="175.31" width="76.35" height="22.3"/><rect class="cls-1" x="153.2" y="175.31" width="76.35" height="22.3"/><rect class="cls-1" x="229.55" y="175.31" width="76.35" height="22.3"/><rect class="cls-1" x="305.91" y="175.31" width="76.35" height="22.3"/><rect class="cls-1" x="0.5" y="197.6" width="76.35" height="22.3"/><rect class="cls-1" x="76.85" y="197.6" width="76.35" height="22.3"/><rect class="cls-1" x="153.2" y="197.6" width="76.35" height="22.3"/><rect class="cls-1" x="229.55" y="197.6" width="76.35" height="22.3"/><rect class="cls-1" x="305.91" y="197.6" width="76.35" height="22.3"/><path class="cls-1" d="M120,56.82a3.86,3.86,0,0,1,3.89,4,3.94,3.94,0,0,1-4,4.18A3.9,3.9,0,0,1,116,61,4,4,0,0,1,120,56.82Zm-.24.44c-1.34,0-2.57,1.13-2.57,3.37s1.23,3.88,2.93,3.88c1.34,0,2.54-1.08,2.54-3.4C122.69,58.6,121.36,57.26,119.79,57.26Zm.8,6.92a15.7,15.7,0,0,0,3.71,2.23l-.08.29a8,8,0,0,1-1.62-.15,14.7,14.7,0,0,1-3.22-2Z" transform="translate(-89.59 -30.99)"/><path class="cls-1" d="M131,70.85a1.24,1.24,0,0,1-.52.16c-.76,0-1.17-.47-1.17-1.43V66.09h-.83l-.05-.14.33-.35h.55v-1c.23-.24.57-.55.8-.79l.18,0c0,.51,0,1.2,0,1.78h1.36a.37.37,0,0,1-.07.49h-1.29v3.07c0,1,.38,1.15.69,1.15a1.63,1.63,0,0,0,.73-.19l.11.31Z" transform="translate(-89.59 -30.99)"/><path class="cls-1" d="M204.92,59.78c-.2-.79-.54-1.57-1.66-1.57A1.2,1.2,0,0,0,202,59.52c0,.83.52,1.25,1.52,1.76,1.44.75,2.06,1.3,2.06,2.44a2.38,2.38,0,0,1-2.64,2.22,5,5,0,0,1-1.83-.4,14.49,14.49,0,0,1-.32-1.8l.37-.09a2.18,2.18,0,0,0,2,1.84,1.31,1.31,0,0,0,1.39-1.38c0-.92-.49-1.29-1.54-1.87-1.26-.68-2-1.26-2-2.37a2.22,2.22,0,0,1,2.47-2.08,7.46,7.46,0,0,1,1.58.23c.05.43.1.91.19,1.69Z" transform="translate(-89.59 -30.99)"/><path class="cls-1" d="M126.94,81.79c1.8,0,2.47,2,2.47,3.87s-.67,3.89-2.47,3.89-2.51-2-2.51-3.87S125.11,81.79,126.94,81.79Zm0,.42c-1.12,0-1.39,1.76-1.39,3.44s.33,3.48,1.39,3.48,1.36-1.79,1.36-3.47S128,82.21,126.94,82.21Z" transform="translate(-89.59 -30.99)"/><path class="cls-1" d="M203.34,195.15c1.8,0,2.47,2,2.47,3.87s-.67,3.89-2.47,3.89-2.51-2-2.51-3.87S201.51,195.15,203.34,195.15Zm0,.42c-1.12,0-1.4,1.76-1.4,3.44s.34,3.48,1.4,3.48,1.36-1.79,1.36-3.47S204.4,195.57,203.34,195.57Z" transform="translate(-89.59 -30.99)"/><path class="cls-1" d="M279.57,213.57c1.8,0,2.47,2,2.47,3.88s-.67,3.88-2.47,3.88-2.51-2-2.51-3.87S277.75,213.57,279.57,213.57Zm0,.42c-1.12,0-1.39,1.77-1.39,3.44s.33,3.48,1.39,3.48,1.37-1.78,1.37-3.46S280.64,214,279.57,214Z" transform="translate(-89.59 -30.99)"/><path class="cls-1" d="M279.57,169.65c1.8,0,2.47,2,2.47,3.88s-.67,3.88-2.47,3.88-2.51-2-2.51-3.87S277.75,169.65,279.57,169.65Zm0,.42c-1.12,0-1.39,1.77-1.39,3.45s.33,3.47,1.39,3.47,1.37-1.78,1.37-3.46S280.64,170.07,279.57,170.07Z" transform="translate(-89.59 -30.99)"/><path class="cls-1" d="M203.34,170.3c1.8,0,2.47,2,2.47,3.88s-.67,3.88-2.47,3.88-2.51-2-2.51-3.87S201.51,170.3,203.34,170.3Zm0,.42c-1.12,0-1.4,1.77-1.4,3.45s.34,3.47,1.4,3.47,1.36-1.78,1.36-3.46S204.4,170.72,203.34,170.72Z" transform="translate(-89.59 -30.99)"/><path class="cls-1" d="M279.57,124.36c1.8,0,2.47,2,2.47,3.87s-.67,3.89-2.47,3.89-2.51-2-2.51-3.88S277.75,124.36,279.57,124.36Zm0,.42c-1.12,0-1.39,1.76-1.39,3.44s.33,3.48,1.39,3.48,1.37-1.79,1.37-3.47S280.64,124.78,279.57,124.78Z" transform="translate(-89.59 -30.99)"/><path class="cls-1" d="M203.34,81.79c1.8,0,2.47,2,2.47,3.87s-.67,3.89-2.47,3.89-2.51-2-2.51-3.87S201.51,81.79,203.34,81.79Zm0,.42c-1.12,0-1.4,1.76-1.4,3.44s.34,3.48,1.4,3.48,1.36-1.79,1.36-3.47S204.4,82.21,203.34,82.21Z" transform="translate(-89.59 -30.99)"/><path class="cls-1" d="M279.57,81.79c1.8,0,2.47,2,2.47,3.87s-.67,3.89-2.47,3.89-2.51-2-2.51-3.87S277.75,81.79,279.57,81.79Zm0,.42c-1.12,0-1.39,1.76-1.39,3.44s.33,3.48,1.39,3.48,1.37-1.79,1.37-3.47S280.64,82.21,279.57,82.21Z" transform="translate(-89.59 -30.99)"/><path class="cls-1" d="M126.94,102.77c1.8,0,2.47,2,2.47,3.88s-.67,3.88-2.47,3.88-2.51-2-2.51-3.87S125.11,102.77,126.94,102.77Zm0,.42c-1.12,0-1.39,1.77-1.39,3.45s.33,3.47,1.39,3.47,1.36-1.78,1.36-3.46S128,103.19,126.94,103.19Z" transform="translate(-89.59 -30.99)"/><path class="cls-1" d="M203.34,102.77c1.8,0,2.47,2,2.47,3.88s-.67,3.88-2.47,3.88-2.51-2-2.51-3.87S201.51,102.77,203.34,102.77Zm0,.42c-1.12,0-1.4,1.77-1.4,3.45s.34,3.47,1.4,3.47,1.36-1.78,1.36-3.46S204.4,103.19,203.34,103.19Z" transform="translate(-89.59 -30.99)"/><path class="cls-1" d="M126.94,124.36c1.8,0,2.47,2,2.47,3.87s-.67,3.89-2.47,3.89-2.51-2-2.51-3.88S125.11,124.36,126.94,124.36Zm0,.42c-1.12,0-1.39,1.76-1.39,3.44s.33,3.48,1.39,3.48,1.36-1.79,1.36-3.47S128,124.78,126.94,124.78Z" transform="translate(-89.59 -30.99)"/><path class="cls-1" d="M126.94,146.65c1.8,0,2.47,2,2.47,3.88s-.67,3.88-2.47,3.88-2.51-2-2.51-3.87C124.43,148.79,125.11,146.65,126.94,146.65Zm0,.42c-1.12,0-1.39,1.77-1.39,3.45s.33,3.47,1.39,3.47,1.36-1.78,1.36-3.46S128,147.07,126.94,147.07Z" transform="translate(-89.59 -30.99)"/><path class="cls-1" d="M125.1,243.12v-.33c1.33-.09,1.4-.15,1.4-1v-4.6c0-.61-.08-.64-.61-.69l-.58-.06v-.3a10,10,0,0,0,2.19-.58v6.23c0,.91.07,1,1.42,1v.33Z" transform="translate(-89.59 -30.99)"/><path class="cls-1" d="M125.1,222.17v-.33c1.33-.09,1.4-.15,1.4-1.05v-4.6c0-.61-.08-.64-.61-.68l-.58-.06v-.3a10.55,10.55,0,0,0,2.19-.59v6.23c0,.92.07,1,1.42,1.05v.33Z" transform="translate(-89.59 -30.99)"/><path class="cls-1" d="M201.5,244.5v-.33c1.33-.09,1.4-.15,1.4-1v-4.6c0-.62-.08-.64-.61-.69l-.58-.06v-.3a9.44,9.44,0,0,0,2.19-.59v6.24c0,.91.07,1,1.41,1v.33Z" transform="translate(-89.59 -30.99)"/><path class="cls-1" d="M277.73,242.86v-.33c1.33-.09,1.41-.14,1.41-1v-4.61c0-.61-.09-.64-.62-.68l-.58-.06v-.3a10.55,10.55,0,0,0,2.19-.59v6.24c0,.91.07.95,1.42,1v.33Z" transform="translate(-89.59 -30.99)"/><path class="cls-1" d="M125.1,200.24v-.33c1.33-.09,1.4-.15,1.4-1v-4.6c0-.61-.08-.64-.61-.68l-.58-.06v-.3a10.55,10.55,0,0,0,2.19-.59v6.23c0,.92.07,1,1.42,1v.33Z" transform="translate(-89.59 -30.99)"/><path class="cls-1" d="M201.5,222.17v-.33c1.33-.09,1.4-.15,1.4-1.05v-4.6c0-.61-.08-.64-.61-.68l-.58-.06v-.3a10.55,10.55,0,0,0,2.19-.59v6.23c0,.92.07,1,1.41,1.05v.33Z" transform="translate(-89.59 -30.99)"/><path class="cls-1" d="M277.73,200.24v-.33c1.33-.09,1.41-.15,1.41-1v-4.6c0-.61-.09-.64-.62-.68l-.58-.07v-.3a10,10,0,0,0,2.19-.58v6.23c0,.92.07,1,1.42,1v.33Z" transform="translate(-89.59 -30.99)"/><path class="cls-1" d="M125.1,177.24v-.33c1.33-.09,1.4-.15,1.4-1v-4.6c0-.61-.08-.64-.61-.68l-.58-.07v-.3a10,10,0,0,0,2.19-.58v6.23c0,.92.07,1,1.42,1v.33Z" transform="translate(-89.59 -30.99)"/><path class="cls-1" d="M201.5,154.27v-.34c1.33-.08,1.4-.14,1.4-1v-4.6c0-.62-.08-.64-.61-.69l-.58-.06v-.3a9.44,9.44,0,0,0,2.19-.59v6.24c0,.91.07,1,1.41,1v.34Z" transform="translate(-89.59 -30.99)"/><path class="cls-1" d="M277.73,155.79v-.33c1.33-.09,1.41-.15,1.41-1.05v-4.6c0-.61-.09-.64-.62-.69l-.58-.06v-.3a10,10,0,0,0,2.19-.58v6.23c0,.91.07,1,1.42,1.05v.33Z" transform="translate(-89.59 -30.99)"/><path class="cls-1" d="M201.5,132.12v-.34c1.33-.08,1.4-.14,1.4-1v-4.61c0-.61-.08-.63-.61-.68l-.58-.06v-.3a10,10,0,0,0,2.19-.59v6.24c0,.91.07,1,1.42,1v.34Z" transform="translate(-89.59 -30.99)"/><path class="cls-1" d="M277.73,110.39v-.34c1.33-.08,1.41-.14,1.41-1V104.4c0-.61-.09-.63-.62-.68l-.58-.06v-.3a9.44,9.44,0,0,0,2.19-.59V109c0,.91.07,1,1.42,1v.34Z" transform="translate(-89.59 -30.99)"/><path class="cls-1" d="M284.83,65.8a3.4,3.4,0,0,1-.45,0,2.12,2.12,0,0,1-1.87-1c-.44-.61-.87-1.36-1.26-2-.24-.38-.39-.45-1-.45h-.42v1.88c0,1,.13,1.08,1.09,1.18v.33h-3.21v-.33c1-.11,1.08-.16,1.08-1.18V59.41c0-1-.13-1.06-1.08-1.17v-.33h3.06a3.46,3.46,0,0,1,1.92.4,1.82,1.82,0,0,1,.82,1.59A2.22,2.22,0,0,1,282,62c.22.37.73,1.18,1.09,1.72a11.63,11.63,0,0,0,.95,1.23,1.69,1.69,0,0,0,.87.55Zm-4.43-3.9a1.9,1.9,0,0,0,1.32-.35,1.66,1.66,0,0,0,.66-1.47,1.61,1.61,0,0,0-1.78-1.75,1,1,0,0,0-.63.12c-.11.08-.14.2-.14.51V61.9Z" transform="translate(-89.59 -30.99)"/><path class="cls-1" d="M348,58.37a3,3,0,0,1,3,3.08,3.07,3.07,0,0,1-3.12,3.26,3,3,0,0,1-3.06-3.12A3.11,3.11,0,0,1,348,58.37Zm-.18.34c-1.05,0-2,.88-2,2.63s.95,3,2.27,3c1.05,0,2-.84,2-2.64C350.06,59.75,349,58.71,347.81,58.71Zm.62,5.39a12.37,12.37,0,0,0,2.89,1.74l-.07.22a6.18,6.18,0,0,1-1.26-.12,11.7,11.7,0,0,1-2.5-1.51Z" transform="translate(-89.59 -30.99)"/><path class="cls-1" d="M356.54,66.94a1.21,1.21,0,0,1-.4.08c-.6,0-.92-.25-.92-.77V64.37h-.64l0-.08.25-.19h.43v-.54l.63-.43H356c0,.27,0,.65,0,1H357c.08.06.05.21-.06.27h-1V66c0,.52.3.62.54.62a1.64,1.64,0,0,0,.57-.11l.09.17Z" transform="translate(-89.59 -30.99)"/><path class="cls-1" d="M360.24,65.46V67h-.56V65.46h-2V65.1h2V63.76h.56V65.1h2v.36Z" transform="translate(-89.59 -30.99)"/><path class="cls-1" d="M363.52,67v-.18c1,0,1.1-.08,1.1-.57V63.71c0-.33-.07-.34-.48-.37l-.46,0v-.16a10.66,10.66,0,0,0,1.71-.32V66.2c0,.49.06.52,1.1.57V67Z" transform="translate(-89.59 -30.99)"/><text class="cls-2" transform="translate(317.7 33.79)"><tspan class="cls-3">C</tspan><tspan x="6.83" y="0">omme</tspan><tspan class="cls-4" x="39.44" y="0">n</tspan><tspan x="46.06" y="0">t</tspan></text><text class="cls-2" transform="translate(75.98 10.29)">Cha<tspan class="cls-5" x="19.4" y="0">r</tspan><tspan x="23.27" y="0">a</tspan><tspan class="cls-6" x="29.05" y="0">c</tspan><tspan class="cls-7" x="34.58" y="0">t</tspan><tspan x="38.48" y="0">e</tspan><tspan class="cls-8" x="44.5" y="0">r</tspan><tspan x="48.47" y="0">istics</tspan><tspan class="cls-9" x="72.94" y="0"> </tspan><tspan class="cls-10" x="74.99" y="0">T</tspan><tspan x="80.18" y="0">able </tspan><tspan class="cls-11" x="104.18" y="0">f</tspan><tspan class="cls-12" x="107.53" y="0">or NAND based </tspan><tspan class="cls-13" x="186.95" y="0">F</tspan><tspan x="192.58" y="0">li</tspan><tspan class="cls-14" x="198.22" y="0">p</tspan><tspan class="cls-15" x="205.23" y="0">-</tspan><tspan class="cls-13" x="208.92" y="0">F</tspan><tspan x="214.56" y="0">lop</tspan></text><text class="cls-16" transform="translate(264.96 58.42)">X</text><text class="cls-16" transform="translate(264.96 146.93)">X</text><text class="cls-16" transform="translate(265.36 81.79)">1</text><text class="cls-16" transform="translate(268.22 215.41)">1</text><text class="cls-16" transform="translate(267.17 169.05)">1</text><text class="cls-16" transform="translate(264.84 103.51)">0</text><text class="cls-16" transform="translate(264.96 123.42)">0</text><text class="cls-16" transform="translate(268.21 191.11)">0</text><text class="cls-17" transform="translate(318.13 58.56)"><tspan class="cls-18">F</tspan><tspan x="7.96" y="0">orbidden</tspan></text><text class="cls-17" transform="translate(314.76 147.71)"><tspan class="cls-18">F</tspan><tspan x="7.96" y="0">orbidden</tspan></text><text class="cls-17" transform="translate(315.66 102.05)">Re<tspan class="cls-19" x="16.34" y="0">s</tspan><tspan x="21.6" y="0">et</tspan></text><text class="cls-17" transform="translate(315.71 193.01)">Re<tspan class="cls-19" x="16.34" y="0">s</tspan><tspan x="21.6" y="0">et</tspan></text><text class="cls-17" transform="translate(314.84 125.76)"><tspan class="cls-20">N</tspan><tspan x="10.71" y="0">o Change</tspan></text><text class="cls-17" transform="translate(313.93 211.96)"><tspan class="cls-20">N</tspan><tspan x="10.71" y="0">o Change</tspan></text><text class="cls-17" transform="translate(316.91 80.15)"><tspan class="cls-21">S</tspan><tspan x="7.32" y="0">et</tspan></text><text class="cls-17" transform="translate(314.35 168.76)"><tspan class="cls-21">S</tspan><tspan x="7.32" y="0">et</tspan></text></svg>