<svg id="Layer_2" data-name="Layer 2" xmlns="http://www.w3.org/2000/svg" viewBox="0 0 588.13 531.68"><defs><style>.cls-1{fill:none;stroke-width:2px;}.cls-1,.cls-2,.cls-3,.cls-4{stroke:#231f20;stroke-miterlimit:10;}.cls-2{font-size:48px;}.cls-2,.cls-3{fill:#414042;font-family:MyriadPro-Regular, Myriad Pro;}.cls-3{font-size:31px;}.cls-4{font-size:30px;fill:#231f20;font-family:BaskOldFace, Baskerville Old Face;}</style></defs><path class="cls-1" d="M589.53,25h0A62.5,62.5,0,0,1,652,87.45V224a0,0,0,0,1,0,0H527a0,0,0,0,1,0,0V87.45A62.5,62.5,0,0,1,589.53,25Z" transform="translate(468.95 -500.95) rotate(90)"/><path class="cls-1" d="M589.53,337h0a62.5,62.5,0,0,1,62.5,62.5V536a0,0,0,0,1,0,0H527a0,0,0,0,1,0,0V399.45A62.5,62.5,0,0,1,589.53,337Z" transform="translate(780.95 -188.95) rotate(90)"/><line class="cls-1" x1="464" y1="88.58" x2="583" y2="88.58"/><line class="cls-1" x1="463.58" y1="400.58" x2="582.58" y2="400.58"/><polyline class="cls-1" points="516 88.58 516 197.08 89 371.08 244 372.08"/><polyline class="cls-1" points="516 400.58 516 291.08 89 119.08 246 119.08"/><line class="cls-1" x1="245" y1="51.08" x2="1" y2="51.08"/><line class="cls-1" x1="244" y1="442.08" y2="442.08"/><text class="cls-2" transform="translate(321.26 99.63)">A</text><text class="cls-2" transform="translate(320.57 419.54)">B</text><circle class="cls-1" cx="454.29" cy="400.58" r="9.29"/><circle class="cls-1" cx="454.29" cy="88.58" r="9.29"/><text class="cls-2" transform="translate(1 40.68)">S</text><text class="cls-3" transform="translate(559.19 74.31)">Q</text><text class="cls-3" transform="translate(561.95 388.29)">Q</text><text class="cls-2" transform="translate(5.27 434.72)">R</text><text class="cls-4" transform="translate(122 523.29)">NAND Based SR Flip - Flop</text><line class="cls-1" x1="555.61" y1="362.68" x2="588.13" y2="362.68"/></svg>