<svg id="Layer_2" data-name="Layer 2" xmlns="http://www.w3.org/2000/svg" viewBox="0 0 232 232"><defs><style>.cls-1{fill:none;stroke:#231f20;stroke-miterlimit:10;}</style></defs><path class="cls-1" d="M25.79,90.17V20.41h231v231H176.06a2.47,2.47,0,0,1,.19-.36,1.94,1.94,0,0,0,.11-2.73c-.79-.88-1.76-.73-2.73-.12a2.67,2.67,0,0,1-1.28.36c-4.8.05-9.6.09-14.4.08a2.46,2.46,0,0,1-1.55-.62q-4.1-4-8.06-8.05a2.59,2.59,0,0,1-.73-1.53c-.1-2.46-.12-4.93-.11-7.4,0-1.73.11-3.47.11-5.2,0-4.7,0-9.4,0-14.1,0-2.51.46-5.08-2.19-6.73a1.66,1.66,0,0,1-.48-1.19q-.13-6.36-.17-12.71c0-3.78-.06-7.57,0-11.35a16.36,16.36,0,0,1,.67-4.34c.31-1,.48-1.95-.4-2.42a3,3,0,0,0-2.47,0c-.88.49-.76,1.55-.29,2.45a3.27,3.27,0,0,1,.5,1.2c.09,1.73.14,3.47.14,5.2,0,5.43-.1,10.85-.12,16.28a30.46,30.46,0,0,1,.07,4.77,4.18,4.18,0,0,0,1.56,4.21,3.17,3.17,0,0,1,1.12,1.91c.14,2.09,0,4.19,0,6.3,0,7.9-.07,15.81,0,23.71a3,3,0,0,0,.81,1.89c2.92,3,5.91,6,8.92,8.94a2.48,2.48,0,0,0,1.53.67c5.16.07,10.33.06,15.5.14.51,0,1,.49,1.52.75H25.79V92.64c1.12.61,2.2,1,3.38,0,.28-.25.87-.19,1.32-.19q8.43,0,16.87,0H66.83c1.4,0,4.23,2.18,4.32,3.44a42.52,42.52,0,0,1,.09,4.92,2.72,2.72,0,0,0,.93,2.42c.73.62,1.35,1.36,2.06,2a1.9,1.9,0,0,0,1,.58,55.83,55.83,0,0,0,6.84.1A3.23,3.23,0,0,1,85,107c3.4,3.45,6.86,6.86,10.27,10.31a2.88,2.88,0,0,0,2.3.83c1.51,0,3.13-.53,4.57.67.36.29,1.72-.06,2.1-.54a2.25,2.25,0,0,0,.07-2.18c-.35-.49-1.68-.91-2.06-.63-1.36,1-2.78.63-4.18.55a3.22,3.22,0,0,1-1.89-.77,106.78,106.78,0,0,1-8.41-8.48c-2.19-2.65-4.76-3.22-7.85-2.82a2.58,2.58,0,0,1-.54.07c-1.33-.15-2.87,0-3.92-.58-1.54-.92-2.84-2.35-2.3-4.54a13.58,13.58,0,0,0,.13-2,3.51,3.51,0,0,0-1.18-3.43c-.83-.63-1.45-1.53-2.28-2.18a3.49,3.49,0,0,0-1.9-.8c-5.76-.06-11.52,0-17.28,0l-20.57,0a1.29,1.29,0,0,1-.78-.14C28.14,89.21,27,89.56,25.79,90.17ZM109.58,136h-.09c0,7.68.1,15.36,0,23-.06,3.19.43,5.93,3.31,7.75a4.12,4.12,0,0,0,1.86.85c4.47.09,9,.11,13.43.11,6.77,0,13.53-.06,20.3-.06,5.25,0,10.51.06,15.77,0,4.79,0,4.81,0,8-3.4a2.72,2.72,0,0,0,.67-1.67q.12-11.65.12-23.3c0-4.2-.08-8.4-.09-12.6,0-5.81,0-11.61,0-17.41,0-.35,0-.85-.19-1-1.92-1.7-3.17-4.52-6.53-3.87a17.86,17.86,0,0,1-3,0c-7.18,0-14.36.07-21.53.07-7.73,0-15.45,0-23.18-.06-4.77,0-4.79,0-8.08,3.46a2.48,2.48,0,0,0-.62,1.53c-.07,2.29,0,4.57,0,6.86Zm111.07-33h-.09c0-2.42,0-4.84,0-7.27a2.54,2.54,0,0,1,.59-1.56q4.54-4.66,9.22-9.23a2.19,2.19,0,0,1,1.42-.53c2.19,0,4.38.13,6.56,0a5.8,5.8,0,0,0,2.52-1.06,15,15,0,0,0,1.59-1.51A3.28,3.28,0,0,0,243.65,79c0-3.46-.05-6.93,0-10.39a2.83,2.83,0,0,1,.72-1.77c2.24-2.35,4.56-4.62,6.86-6.92A5.39,5.39,0,0,1,254.12,58c.93-.16,1.28-1.1,1.09-2.07a1.59,1.59,0,0,0-1.69-1.45,1.72,1.72,0,0,0-1.94,1.33,4.55,4.55,0,0,1-1,1.83c-2.68,2.75-5.43,5.44-8.13,8.18a2.31,2.31,0,0,0-.74,1.37c-.1,3.86-.13,7.73-.16,11.6,0,1.13-1.86,3.41-3,3.45-2,.07-4,.11-6,0a4.67,4.67,0,0,0-4,1.45c-2.94,3.13-6.08,6.08-9.07,9.17a3.25,3.25,0,0,0-.85,2c-.05,4.43,0,8.86,0,13.3,0,3.11-1.73,4.86-4.87,4.81-2.7,0-5.4,0-8.09,0a2.85,2.85,0,0,0-1.76.79c-2.38,2.29-4.65,4.67-7,7a2.93,2.93,0,0,1-1.77.74c-3.29.09-6.59.21-9.86,0-1.71-.1-3.54.4-5.2-.73a2.17,2.17,0,0,0-2.05.67,2.76,2.76,0,0,0,.19,2.35c.49.79,1.42.71,2.34.31a7.48,7.48,0,0,1,2.7-.65c1.92,0,3.83.11,5.75.13,2.31,0,4.63.07,7,0a3.25,3.25,0,0,0,1.89-.85c2.35-2.25,4.6-4.59,6.93-6.86a2.44,2.44,0,0,1,1.37-.77,30.9,30.9,0,0,1,6.15-.12c3.07.42,5.61-.12,7.39-2.79a5.23,5.23,0,0,0,1-2.4C220.73,107.5,220.65,105.21,220.65,102.92ZM119.58,62c.36-1.14-.29-2.19-1.39-3.12-.67-.56-1.18-1.29-1.87-1.81a3.73,3.73,0,0,0-1.91-.85c-4.79,0-9.58,0-14.37.08a4.89,4.89,0,0,1-4-1.44C90,48.65,83.9,42.6,77.8,36.54a3.16,3.16,0,0,0-1.79-1c-6.21-.06-12.43,0-18.64,0a6.18,6.18,0,0,1-2.57-.61,1.94,1.94,0,0,0-2.48.31,1.79,1.79,0,0,0,0,2.5,1.87,1.87,0,0,0,2.47.32,4.06,4.06,0,0,1,1.51-.49c6,0,12.07,0,18.1-.06a3.29,3.29,0,0,1,2.53,1.09q9.33,9.39,18.74,18.72A2.9,2.9,0,0,0,97.4,58c2.87.1,5.74.06,8.6.08a60.08,60.08,0,0,0,6.15,0c2.79-.27,5.72,2.28,5.58,5.07-.1,2.23-.13,4.46-.16,6.7a5.36,5.36,0,0,0,1.81,4.45c2.3,2,4.39,4.28,6.53,6.47a2.42,2.42,0,0,1,.74,1.38c.08,3.6.16,7.21,0,10.81-.05,1.34.25,2.8-.75,4.09-.28.36.15,1.77.63,2.07a2.43,2.43,0,0,0,2.3-.13c.45-.42.39-1.52.36-2.32s-.48-1.36-.49-2c0-3.78,0-7.57,0-11.36a5.6,5.6,0,0,0-1.91-4.68,85.09,85.09,0,0,1-6.32-6.28,3.32,3.32,0,0,1-.86-2C119.52,67.67,119.58,65,119.58,62ZM185.64,54h.07c0,1.06,0,2.11,0,3.16s0,2.1,0,3.15a6,6,0,0,1-1.91,5.1,4.62,4.62,0,0,1-4.17,1.07c-3.08-.46-5.16.83-6.86,3.12a2.54,2.54,0,0,0-.57,1.3c-.08,2-.15,3.93-.06,5.89a3.22,3.22,0,0,1-1.12,2.64c-3.69,3.62-7.32,7.3-11,10.94a2.74,2.74,0,0,0-.94,2.53,7.1,7.1,0,0,1-.46,3.41c-.42,1-.73,1.94.14,2.74a1.73,1.73,0,0,0,2.48,0c.93-.79.88-1.65.22-2.66a4.41,4.41,0,0,1,.61-5.12c3.72-3.72,7.45-7.43,11.15-11.17a2.64,2.64,0,0,0,.84-1.46,35.81,35.81,0,0,0,0-5.48,4.2,4.2,0,0,1,1.35-3.49,3.76,3.76,0,0,1,3.69-1.19,7.33,7.33,0,0,0,7.48-3,4,4,0,0,0,1.06-2.66c-.05-1.78-.07-3.56-.09-5.34,0-2.7.13-5.4-.08-8.08s.4-4.92,2.7-6.55c.66-.47,1.13-1.21,1.78-1.7a2.91,2.91,0,0,1,1.57-.66c3.87-.06,7.75-.1,11.62,0a2.84,2.84,0,0,0,2.36-1q7.13-7.15,14.28-14.26a3.73,3.73,0,0,1,1.58-1,1.79,1.79,0,0,0,1.59-2c-.08-.82-.33-1.59-1.44-1.65-1.28-.07-2.12.2-2.25,1.68a2.56,2.56,0,0,1-.85,1.33c-4.42,4.45-8.88,8.86-13.28,13.32a4.34,4.34,0,0,1-3.77,1.62c-3.13-.24-6.29,0-9.43-.11a4.51,4.51,0,0,0-4,1.64c-1.09,1.29-2.44,2.36-3.54,3.64a3.58,3.58,0,0,0-.83,2C185.59,48.56,185.64,51.3,185.64,54ZM109.56,76.7a4.49,4.49,0,0,0,1.1,0c1.61-.43,2.62.41,3.64,1.5,2,2.12,4.17,4.11,6.17,6.26a3.49,3.49,0,0,1,.82,2.15c0,2.37-.16,4.75-.09,7.11a4.38,4.38,0,0,1-.56,3.09,1.66,1.66,0,0,0,.48,2.43,1.89,1.89,0,0,0,2.59-2.7,2.42,2.42,0,0,1-.52-1.19c0-3.33,0-6.65,0-10a3.28,3.28,0,0,0-.82-2c-2.53-2.64-5.11-5.24-7.77-7.75a3.9,3.9,0,0,0-2.38-1q-5.33-.16-10.67,0a4.15,4.15,0,0,1-3.33-1.42Q89.1,64,79.85,54.86a3.55,3.55,0,0,0-2.26-.93c-4.57-.06-9.14-.08-13.71,0-2.6.08-4.86-.28-6.43-2.62A5,5,0,0,0,56.2,50.1a3.07,3.07,0,0,0-1.55-.68c-3.61,0-7.21.08-10.82,0a9.15,9.15,0,0,1-3.08-.67,2,2,0,0,0-2.47.45,1.73,1.73,0,0,0,0,2.38,1.85,1.85,0,0,0,2.45.4,5.14,5.14,0,0,1,1.77-.52c2.46-.09,4.93-.09,7.4-.11,4.65,0,4.65,0,7.94,3.28a4.32,4.32,0,0,0,.77.77,2.48,2.48,0,0,0,1.22.5c5.48,0,11,.08,16.44,0a4,4,0,0,1,3.11,1.32Q88.64,66.58,98,75.79a3.44,3.44,0,0,0,2.14.87C103.26,76.76,106.41,76.71,109.56,76.7ZM62.84,167.11c-.71-2.06.36-4,2.45-5.56.11-.08.17-.24.29-.28a4.35,4.35,0,0,1,1.4-.43c2.73,0,5.46.08,8.19,0a3.5,3.5,0,0,0,2.11-1c2.81-2.69,5.55-5.44,8.27-8.23a3.13,3.13,0,0,1,2.5-1.07c3.75.06,7.49,0,11.24,0,.9,0,1.79.53,2.69.59.75.05,1.79,0,2.19-.43a2.31,2.31,0,0,0,.18-2.18,2.2,2.2,0,0,0-2-.76c-1.82,1-3.74.67-5.61.74-3.23.12-6.48.06-9.71,0a3.05,3.05,0,0,0-2.41,1c-2.77,2.85-5.59,5.67-8.45,8.43a3.16,3.16,0,0,1-1.89.8,49.17,49.17,0,0,1-7.38.11,3.75,3.75,0,0,0-3.5,1.57,6.24,6.24,0,0,1-.68.68,4.57,4.57,0,0,0-1.87,4.06c.17,4.88,0,9.77-.1,14.65a3.2,3.2,0,0,1-.79,2q-13.14,13.25-26.39,26.4A10.82,10.82,0,0,1,31,209.94c-.87.46-1.45,1.15-1.14,2.06a2.8,2.8,0,0,0,1.46,1.49,1.7,1.7,0,0,0,2.14-1A11.16,11.16,0,0,1,35,209.9c8.9-9,17.85-17.87,26.75-26.82a3.23,3.23,0,0,0,1-1.94C62.88,176.66,62.84,172.19,62.84,167.11Zm179,46.61a8,8,0,0,0-3.5-8.63s-.06-.08-.1-.1a8,8,0,0,0-2.52-1c-3.55-.12-7.11-.08-10.67,0a3,3,0,0,1-2.41-1q-10.87-11-21.83-21.85c-.37-.37-.85-.86-1.31-.88-2.18-.14-4.37-.2-6.56-.15-1.27,0-3.34-1.47-3.37-2.72-.07-2.33-.13-4.66,0-7a2.84,2.84,0,0,0-.93-2.42q-3.19-3.11-6.29-6.31a4.2,4.2,0,0,1-1-1.72,1.77,1.77,0,0,0-2-1.4,1.85,1.85,0,0,0-.19,3.65,2.34,2.34,0,0,1,1.18.51q3.35,3.24,6.61,6.58a2.2,2.2,0,0,1,.6,1.31,19.77,19.77,0,0,1,0,5.32c-.61,2.74,1,4.16,2.66,5.64a2.43,2.43,0,0,0,1.46.6c1.41,0,2.83-.06,4.24-.12a5.29,5.29,0,0,1,4.52,1.54c7,7.14,14.07,14.13,21.1,21.21a3.89,3.89,0,0,0,3.12,1.32c2.87-.09,5.77.24,8.59-.12,2.45-.31,3.9.7,5.4,2.31a4,4,0,0,1,1.23,3.16c-.09,2.38-.05,4.76-.1,7.13a2.83,2.83,0,0,0,1,2.28q3.42,3.28,6.7,6.7a4.8,4.8,0,0,1,1,1.84c.32,1,1,1.55,1.93,1.32a2.72,2.72,0,0,0,1.69-1.45,1.69,1.69,0,0,0-1.13-2.19,9.34,9.34,0,0,1-2.47-1.52c-1.58-1.45-3-3.1-4.6-4.52s-2.53-2.8-2-5A10.65,10.65,0,0,0,241.8,213.72Zm-65.64.65v-.06c-2.7,0-5.39,0-8.09,0-1,0-3.27-2-3.3-2.94-.07-2.5-.13-5,0-7.5.09-2,0-3.68-1.72-5.16a87.81,87.81,0,0,1-6.43-6.37,3.13,3.13,0,0,1-.85-1.88c-.09-4.42-.1-8.85-.08-13.27a4.34,4.34,0,0,1,.6-1.76c.46-.87.55-1.83-.25-2.33a3.14,3.14,0,0,0-2.37-.25,1.48,1.48,0,0,0-.62,2.23c1.07,1.71.61,3.55.69,5.31.17,3.68,0,7.39.1,11.08a2.86,2.86,0,0,0,.75,1.76c2.41,2.5,4.91,4.92,7.33,7.42a2.6,2.6,0,0,1,.71,1.51,36,36,0,0,1,.08,6.56,6.49,6.49,0,0,0,2.87,6.79,4.79,4.79,0,0,0,2.16.88c1.4.1,2.83-.07,4.24-.09,2.69,0,5.39-.06,8.08,0,2,0,3.87-.11,5.61,1.68,8.52,8.76,17.24,17.32,25.85,26a7.2,7.2,0,0,1,1.35,2.27,1.58,1.58,0,0,0,2.06,1.08,2.67,2.67,0,0,0,1.47-1.41,1.45,1.45,0,0,0-1-2.05,4.91,4.91,0,0,1-2.79-1.83q-13.45-13.44-26.92-26.86a2.52,2.52,0,0,0-1.51-.72C181.47,214.33,178.81,214.37,176.16,214.37Zm4.27-17.63c-3.24,0-6.49,0-9.73,0a2.72,2.72,0,0,1-1.71-.58c-2.48-2.38-4.89-4.82-7.28-7.28a2.12,2.12,0,0,1-.53-1.31c0-3.6,0-7.2,0-10.8a2.91,2.91,0,0,1,.4-1.25,2,2,0,0,0-.27-2.61,1.81,1.81,0,0,0-2.51.09,1.92,1.92,0,0,0-.21,2.61,4.1,4.1,0,0,1,.59,1.89c0,3.55-.13,7.1-.1,10.65a3,3,0,0,0,.83,1.89c2.64,2.74,5.33,5.42,8.05,8.07a2.69,2.69,0,0,0,1.67.72c3.51,0,7-.06,10.52-.09,2.79,0,5.57,0,8.35-.05A4.4,4.4,0,0,1,192,200c6.09,6.2,12.26,12.33,18.43,18.45a3,3,0,0,0,1.68,1,37.27,37.27,0,0,0,6.16,0c2.58-.26,4.65.4,6.09,2.6a4.32,4.32,0,0,1,.86,2c.1,2.63.07,5.27,0,7.91a2.27,2.27,0,0,1-.44,1.1c-.61.95-.64,2,.28,2.54a2.88,2.88,0,0,0,2.48,0c.94-.55.77-1.63.24-2.56-.21-.38-.57-.78-.57-1.17,0-2.46,0-4.92.08-7.37a4.48,4.48,0,0,0-1.72-4.18c-.77-.56-1.31-1.42-2.08-2a4,4,0,0,0-2-.84c-1.91-.08-3.83,0-5.75.09a6.91,6.91,0,0,1-5.65-2.24c-5.59-5.87-11.43-11.48-17.11-17.26a4.2,4.2,0,0,0-3.25-1.36C186.65,196.75,183.54,196.74,180.43,196.74Zm-122.22,16h0a12.65,12.65,0,0,0,0,1.51c.32,2.65-.37,4.87-2.69,6.37a4.39,4.39,0,0,1-2,.8c-2.45.1-4.91.09-7.37,0-.76,0-1.51-.51-2.28-.54s-2,0-2.29.43a2.87,2.87,0,0,0,.06,2.46c.44.83,1.44.84,2.31.32a2.51,2.51,0,0,1,1-.48,40.08,40.08,0,0,1,5-.07c3.34.28,6.51.28,8.61-3,.19-.3.59-.48.75-.79a5.64,5.64,0,0,0,.89-2.16c.09-2.42,0-4.85-.05-7.27a3.62,3.62,0,0,1,1.15-2.92c6.09-6,12.11-12.09,18.19-18.11a3.29,3.29,0,0,0,1.07-2.53q-.08-9.8,0-19.59a2.9,2.9,0,0,1,.71-1.78c2.91-3,5.87-5.92,8.84-8.83a2.14,2.14,0,0,1,1.29-.59c2.46-.1,4.93-.2,7.39-.16a8.08,8.08,0,0,1,3,.61c1,.44,1.84.48,2.57-.39a1.76,1.76,0,0,0,0-2.39,1.87,1.87,0,0,0-2.59-.32A4.14,4.14,0,0,1,100,154c-2.87.05-5.74,0-8.61.05a3.77,3.77,0,0,0-2.33.77c-3.36,3.23-6.64,6.56-9.91,9.89a2.2,2.2,0,0,0-.61,1.29c-.1,1.45-.12,2.92-.11,4.38,0,5.11.14,10.22.09,15.32a4.17,4.17,0,0,1-1.06,2.64C72.21,193.66,67,199,61.58,204.12c-2.57,2.4-4.2,4.8-3.37,8.39A1.22,1.22,0,0,1,58.21,212.78ZM201.07,96.37c0,3.11.05,6.22,0,9.32a2.93,2.93,0,0,1-.79,1.78q-3.92,4.05-8,8a3.24,3.24,0,0,1-1.93.74c-2,.09-4,.09-6,0-1.36-.06-2.77.44-4.06-.65-.39-.33-1.63-.06-2.18.34a1.67,1.67,0,0,0-.19,2.36,1.58,1.58,0,0,0,2.27.6c1.17-1,2.39-.62,3.62-.64,2.46,0,4.92,0,7.38-.12a3.36,3.36,0,0,0,2-.69c2.82-2.69,5.5-5.51,8.31-8.2a4.24,4.24,0,0,0,1.47-3.43c-.09-5.44.07-10.88,0-16.32a4.16,4.16,0,0,1,1.33-3.36q9.63-9.51,19.13-19.12a2.34,2.34,0,0,0,.69-1.39,31.88,31.88,0,0,0,0-6A5.23,5.23,0,0,1,226.53,54a4.86,4.86,0,0,1,2.31-.83,50,50,0,0,1,5.87,0,11.28,11.28,0,0,1,3.24.68,2,2,0,0,0,2.47-.41,1.72,1.72,0,0,0,0-2.38,1.84,1.84,0,0,0-2.46-.43,3.67,3.67,0,0,1-1.21.53c-2.92.07-5.84.12-8.76.07-1.5,0-5.66,3.2-5.84,4.69a2.43,2.43,0,0,0,0,.27c0,2.56-.06,5.12,0,7.68a3.13,3.13,0,0,1-1,2.52q-9.66,9.57-19.21,19.23a3.18,3.18,0,0,0-.83,2C201,90.52,201.07,93.44,201.07,96.37Zm33.44,36.1v0c4.29,0,8.61-.26,12.87.08a7.68,7.68,0,0,0,7.33-3,3.85,3.85,0,0,0,1.09-2.65c-.05-4.89,0-9.78,0-14.67a3.62,3.62,0,0,1,.53-1.59c.59-1,.24-2.65-.79-2.82-.69-.11-1.81,0-2.1.41a4.15,4.15,0,0,0-.18,2.38c0,.6.44,1.18.45,1.78.05,3.93-.06,7.86.1,11.79.09,2.13-.18,3.89-2,5.31a4,4,0,0,1-2.77,1.12c-2.61-.08-5.21,0-7.82,0-8,0-16,0-24,0a2.31,2.31,0,0,0-1.62.48,4.22,4.22,0,0,1-3.92,1.4c-1.09-.09-2.19-.14-3.28-.14-5,0-9.93.08-14.9.12-2.64,0-5.28.08-7.91,0-1.88-.05-3.78.2-5.59-.79-.44-.24-1.56.25-2.05.73a1.48,1.48,0,0,0,.2,2.29,3.7,3.7,0,0,0,2.24.34c.81-.06,1.6-.56,2.4-.6,1.69-.08,3.38,0,5.07,0,3.79,0,7.57-.13,11.36-.13,4.93,0,9.86.1,14.78.09a2.47,2.47,0,0,0,1.68-.68,3.88,3.88,0,0,1,3.33-1.21ZM134.05,83.94h0c0-3.57.05-7.13,0-10.7a3.49,3.49,0,0,0-.87-2.12c-2.2-2.33-4.52-4.53-6.76-6.83a2.63,2.63,0,0,1-.79-1.49c-.11-1.87-.1-3.74-.1-5.62,0-5.34.06-10.69.08-16,0-1.11-3.5-5.09-4.59-5.26h-.13c-2.82,0-5.65,0-8.47,0-1.13,0-2.27.13-3.41.13a4.71,4.71,0,0,1-4-1.56c-1.38-1.64-3-3-4.51-4.61-.52-.57-.71-1.44-1.23-2a3.67,3.67,0,0,0-1.83-1.28A1.56,1.56,0,0,0,95.59,28a1.91,1.91,0,0,0,1.16,2.11,13.17,13.17,0,0,1,2.56,1.61c1.72,1.58,3.39,3.22,5,5a3.58,3.58,0,0,0,2.89,1.22c3.46,0,6.94.12,10.39-.11,2.65-.18,4.24,1.21,5.69,3a2.05,2.05,0,0,1,.33,1.28c0,4.38-.08,8.76-.11,13.15,0,2,.11,4,0,6a5.56,5.56,0,0,0,2,5.17c1.68,1.41,3,3.21,4.72,4.59s2,3.06,2,5.06c-.06,5.76,0,11.52,0,17.28,0,1.19.2,2.39-.67,3.54a1.55,1.55,0,0,0,.59,2.35,2.9,2.9,0,0,0,2.22-.14c.93-.52.8-1.49.4-2.42a5.25,5.25,0,0,1-.56-1.9C134,91.16,134.05,87.55,134.05,83.94Zm21.87,141.23v4.24c0,4,0,4,2.9,6.8a3.25,3.25,0,0,0,2,.82c4.52.1,9.05-.07,13.56.16,3.5.17,6.44-.45,8.56-3.51a3.2,3.2,0,0,1,1.74-1.17,1.75,1.75,0,0,0,1.52-2,1.56,1.56,0,0,0-1.64-1.63,1.68,1.68,0,0,0-2,1.58,2.68,2.68,0,0,1-.69,1.28c-.87.94-1.77,1.86-2.72,2.71a2.2,2.2,0,0,1-1.3.58c-5.34.09-10.68.17-16,.18a4.5,4.5,0,0,1-4-4.1c0-7.36,0-14.72.08-22.07a2.85,2.85,0,0,0-1-2.27q-3-2.91-5.91-5.93a2.9,2.9,0,0,1-.78-1.64c-.12-1.64-.1-3.29-.1-4.93,0-5.26,0-10.52.06-15.77,0-1.13-.18-2.19.61-3.26a1.68,1.68,0,0,0-.56-2.41,1.8,1.8,0,0,0-2.38.2,1.94,1.94,0,0,0-.23,2.5,4.33,4.33,0,0,1,.54,1.87q0,11.12,0,22.22a2.83,2.83,0,0,0,.92,2.29c2,1.93,4,3.89,5.9,5.93a3.28,3.28,0,0,1,.82,2C156,214.93,155.92,220.05,155.92,225.17Zm78.92-37.25V188c5.85,0,11.71,0,17.56,0a2.94,2.94,0,0,1,1.24.48c1,.5,2,.53,2.56-.35a2.66,2.66,0,0,0,0-2.35,1.85,1.85,0,0,0-2.56-.43,5,5,0,0,1-2,.55c-5.34,0-10.69,0-16,0q-7.62,0-15.23.11a4.69,4.69,0,0,1-4.21-1.72,13.08,13.08,0,0,0-2.52-2.52c-2.44-1.84-3.56-4.15-2.92-7.22.29-1.44-.43-2.4-1.36-3.49-2-2.34-4.17-3.73-7.41-3.13-2.15.39-3.81-.56-5.35-2.23C193.17,162,189.47,158.6,186,155a3.68,3.68,0,0,0-3.07-1.08,5.18,5.18,0,0,1-2.27-.53,2,2,0,0,0-2.51.27,1.69,1.69,0,0,0,0,2.56,2.88,2.88,0,0,0,2.44.2A4.17,4.17,0,0,1,185,157q6.06,6.06,12.15,12.11a2.66,2.66,0,0,0,1.51.73c1,.1,2.1,0,3.14,0s2.62-.25,3.34.35c1.6,1.34,3.9,2.41,3.48,5.24a15.2,15.2,0,0,0,.12,3.56,2.45,2.45,0,0,0,.59,1.41c2.26,2.34,4.56,4.63,6.88,6.9a2.07,2.07,0,0,0,1.3.56C223.31,187.93,229.08,187.92,234.84,187.92Zm-107.32-154c2.34-.45,4.47,0,5.9,2.16a4.38,4.38,0,0,1,.87,2.13c0,8,0,16.08,0,24.12,0,1.71.22,3.24,1.78,4.29,1.33.88,1.55,2.25,1.53,3.72-.07,4.69-.14,9.38-.17,14.07,0,3.51,0,7,0,10.52a4.5,4.5,0,0,1-.41,1.67c-.41,1-.56,1.92.29,2.62a1.79,1.79,0,0,0,2.5-.08A2,2,0,0,0,140,96.5a4.22,4.22,0,0,1-.59-1.9c0-3.78.13-7.56.13-11.34,0-4.24-.26-8.49-.08-12.71.11-2.44-.3-4.34-2.3-5.87a2.8,2.8,0,0,1-.84-2c0-3.79,0-7.58.05-11.37,0-3.51,0-7,0-10.54,0-4.81,0-4.81-3.39-8.14,0,0-.06-.08-.1-.09a5.21,5.21,0,0,0-1.56-.61c-1.87-.1-3.75,0-5.61-.17a3.74,3.74,0,0,1-2.13-.92c-2.36-2.23-4.65-4.53-6.9-6.88a5.61,5.61,0,0,1-1.17-2c-.4-1.16-1.2-1.33-2.24-1.25s-1.37.84-1.45,1.68a1.72,1.72,0,0,0,1.36,1.93,4.71,4.71,0,0,1,1.84,1c2.63,2.55,5.17,5.18,7.8,7.72a3.67,3.67,0,0,0,1.9.82A18.76,18.76,0,0,0,127.52,33.89Zm-75,107.94H47.56c-1.65,0-3.3-.08-4.94-.07-5.35,0-5.36,0-9,3.92a2.73,2.73,0,0,0-.65,1.67c0,3.88.06,7.78-.07,11.66-.06,1.72.39,3.52-.69,5.2a2.19,2.19,0,0,0,.58,2.09,2.36,2.36,0,0,0,2.28-.11c.47-.43.44-1.53.41-2.33s-.51-1.53-.53-2.3c-.08-4.39-.09-8.78-.11-13.17a1.81,1.81,0,0,1,.26-1.16c1.69-1.65,2.88-3.63,6-3.51,7.53.31,15.08-.14,22.62.1,3.39.11,6.15-.36,8.22-3.25a2.29,2.29,0,0,1,1.63-.72c4-.13,8-.19,12-.22,3.74,0,7.49-.14,11.21.08,1.76.1,3.62-.38,5.34.69a1.47,1.47,0,0,0,2.22-.63,3.19,3.19,0,0,0-.24-2.37c-.51-.81-1.46-.64-2.35-.27a6.92,6.92,0,0,1-2.57.65c-7.62,0-15.25.08-22.87-.16-3.22-.11-5.75.59-7.75,3.21a3.24,3.24,0,0,1-2.23.95C61.73,141.87,57.11,141.83,52.49,141.83ZM241.8,109.08a37.82,37.82,0,0,1,0-3.84c.29-3-.43-5.59-3.07-7.47a5.16,5.16,0,0,1-1.55-2.27,1.87,1.87,0,0,0-2-1.44,1.69,1.69,0,0,0-1.68,1.67,1.81,1.81,0,0,0,1.42,2,5.26,5.26,0,0,1,1.72,1,14.54,14.54,0,0,1,2.31,2.33,4.2,4.2,0,0,1,.84,2.17c.09,2.83,0,5.67.06,8.5s.27,5.73-2.65,7.5a4.76,4.76,0,0,1-2,.86c-2.46.11-4.92,0-7.39,0-5.19,0-10.38,0-15.57,0a3.13,3.13,0,0,0-1.91.78c-1.78,1.65-3.43,3.43-5.19,5.1a3,3,0,0,1-1.63.82,32.78,32.78,0,0,1-3.84.12c-5.25,0-10.51-.07-15.76-.07-1.26,0-2.47.24-3.68-.62-.42-.3-1.67.1-2.22.57a1.5,1.5,0,0,0,.06,2.3,4.11,4.11,0,0,0,2.36.42c.49,0,1-.53,1.47-.55,1.68-.1,3.38-.09,5.07-.1,5.75,0,11.51,0,17.27-.07a3.09,3.09,0,0,0,1.86-.84c1.77-1.65,3.42-3.44,5.19-5.09a3,3,0,0,1,1.78-.74c2.64-.08,5.27,0,7.91,0,2.23,0,4.47.09,6.7.09,1.55,0,3.11-.2,4.64,0,2.82.28,5.48.31,7.3-2.41.35-.52,1-.86,1.32-1.39a4.59,4.59,0,0,0,.83-2C241.86,113.93,241.8,111.51,241.8,109.08ZM42.17,158.8c-.19-2.08,2.43-4.7,4.46-4.68,7.22,0,14.45.08,21.67,0a3.25,3.25,0,0,0,2-.83q3.63-3.47,7.1-7.08a3.67,3.67,0,0,1,2.92-1.17c5.9,0,11.79,0,17.69,0a10.13,10.13,0,0,1,3.56.5c1,.4,1.92.63,2.7-.28a1.73,1.73,0,0,0,0-2.37c-.77-1-1.74-.76-2.72-.3a3.84,3.84,0,0,1-1.5.49c-7.13,0-14.26,0-21.4,0a3,3,0,0,0-1.87.83c-2.32,2.21-4.61,4.45-6.8,6.79a4.48,4.48,0,0,1-3.63,1.45c-5.12-.08-10.24-.09-15.35-.11a35.63,35.63,0,0,1-5.06,0c-1.65-.25-2.47.67-3.36,1.63s-1.7,2-2.53,3c-.05.06,0,.18,0,.27,0,4.29.12,8.58.08,12.87a15.88,15.88,0,0,1-.56,4.52c-.31,1-.66,2,.21,2.58a2.76,2.76,0,0,0,2.44.08c1-.57.82-1.67.3-2.65a2.81,2.81,0,0,1-.36-1.28C42.16,168.38,42.17,163.59,42.17,158.8Zm165.23,4.35c1.33-.45,2.35.42,3.29,1.51A14.52,14.52,0,0,1,212,166a3,3,0,0,1,.72,1.78c-.32,2.07.59,3.44,2.11,4.64.74.6,1.29,1.45,2.06,2a4,4,0,0,0,2.14.88q8.83.1,17.69,0a3,3,0,0,0,2.12-.89c1.52-1.86,3.33-2.8,5.71-2.34,1.49.29,3.06-.24,4.5.75a2.19,2.19,0,0,0,2.1-.57,2.46,2.46,0,0,0,0-2.3,2.22,2.22,0,0,0-2.12-.48c-1.56,1.19-3.25.75-4.86.63-2.28-.16-4.38-.15-5.83,2a2.83,2.83,0,0,1-2.6,1.2c-5.44-.05-10.88,0-16.32-.07a1.56,1.56,0,0,1-1-.31c-1.84-1.81-4.21-3.3-3.79-6.48.13-1.06-3.85-5.13-4.93-5.26h-.13c-2.46,0-4.92,0-7.38,0a3.75,3.75,0,0,1-3-1.15c-3.36-3.49-6.87-6.85-10.24-10.33a4.22,4.22,0,0,0-3-1.23c-1.91-.19-3.89.41-5.75-.66a2.18,2.18,0,0,0-2.11.57,2.52,2.52,0,0,0,.14,2.31,2.21,2.21,0,0,0,2.13.41c2-1.19,4.09-.55,6.13-.53.37,0,.77.46,1.08.77,3.63,3.61,7.24,7.25,10.9,10.84a2.93,2.93,0,0,0,1.75.83C202.49,163.21,204.82,163.15,207.4,163.15ZM62.21,78.94h0c5.34,0,10.69,0,16,0a3.41,3.41,0,0,1,2.12.92c2.74,2.62,5.41,5.33,8.07,8a2.79,2.79,0,0,0,2.3.87q6.38-.09,12.75,0a4,4,0,0,1,3.67,3.93,4.86,4.86,0,0,0,2,4.63c.82.65,1.46,1.38,2.67,1.38,1.47,0,3-.27,4.38.66a1.51,1.51,0,0,0,2.22-.69,2.67,2.67,0,0,0-.23-2.22,3,3,0,0,0-2.21-.45c-1.13.09-2.24.59-3.38.66a3.35,3.35,0,0,1-3.25-3.27c.1-2-.29-3.77-2.08-5a2.23,2.23,0,0,1-.48-.49A3,3,0,0,0,104,86.84c-4.15,0-8.32,0-12.47-.08a3.74,3.74,0,0,1-2.26-1c-2.78-2.65-5.45-5.41-8.2-8.1a2.55,2.55,0,0,0-1.5-.74q-7.4-.1-14.8-.08c-4.93,0-9.87.15-14.8,0-2,0-4.07.44-6-.7a1.49,1.49,0,0,0-2.2.74,2.52,2.52,0,0,0,.31,2.2c.48.43,1.51.32,2.3.29.55,0,1.09-.47,1.64-.48C51.42,78.92,56.81,78.94,62.21,78.94Zm42.52,54.38a1.89,1.89,0,0,0-2.86-1.62,6,6,0,0,1-2.18.54c-3.28.06-6.56,0-9.84,0-4.69,0-9.39.2-14.08.09-1.52,0-3.26.46-4.59-1-1.55-1.73-3.25-3.34-5-4.94a2.63,2.63,0,0,0-1.63-.74q-11.38-.11-22.77,0a3,3,0,0,0-1.91.76c-2.67,2.56-5.23,5.24-7.9,7.82a7.39,7.39,0,0,1-2.25,1.37,1.92,1.92,0,0,0-1.29,2.15,1.62,1.62,0,0,0,1.62,1.57,1.86,1.86,0,0,0,2-1.45,5.11,5.11,0,0,1,1-1.72c2.33-2.4,4.77-4.68,7-7.12a4.37,4.37,0,0,1,3.49-1.47c6.58,0,13.16,0,19.74.07a3.14,3.14,0,0,1,1.89.79c1.8,1.68,3.5,3.48,5.27,5.21a2.25,2.25,0,0,0,1.23.75c3,.08,5.93.07,8.89.06,3.65,0,7.29,0,10.93,0,2.38,0,4.76.12,7.13,0A4.93,4.93,0,0,1,102,135,1.82,1.82,0,0,0,104.73,133.32Zm-8.49,78.37c-.67-2,.38-3.32,1.82-4.46a5.57,5.57,0,0,1,2.14-1.31,13,13,0,0,1,3.4.1c1.74.19,6-3,6.19-4.8a5.15,5.15,0,0,0,0-.68c0-1.68-.08-3.36,0-5a2.93,2.93,0,0,1,.81-1.75c3.59-3.66,7.14-7.37,10.91-10.84a5.72,5.72,0,0,0,1.77-5.13,5,5,0,0,1,.48-2.26,2,2,0,0,0-.3-2.62,1.89,1.89,0,0,0-2.71,2.61,5,5,0,0,1-.57,5.72c-3.85,3.85-7.72,7.69-11.54,11.57a3.19,3.19,0,0,0-1,1.72,16.28,16.28,0,0,0,.06,3.69A5.05,5.05,0,0,1,102,204a6.5,6.5,0,0,0-5.67,1.81c-2.18,2-2.2,4.18-2.17,6.75.09,8.32,0,16.64-.06,25a6,6,0,0,1-.54,2c-.34.92-.48,1.81.34,2.49a1.79,1.79,0,0,0,2.5,0,2,2,0,0,0,.32-2.49,6.75,6.75,0,0,1-.61-2.43c0-4.38.07-8.77.09-13.16C96.26,219.84,96.24,215.78,96.24,211.69ZM253.41,155a1.82,1.82,0,0,0-2.84-1.65,3.65,3.65,0,0,1-1.34.53c-1.36.11-2.73.16-4.1.15-5.25,0-10.49-.09-15.73-.11-1.6,0-3.19.12-4.78.12-4.79,0-9.57-.09-14.36-.12-2.73,0-5.46,0-8.19,0a2.06,2.06,0,0,1-1.24-.68,69.81,69.81,0,0,1-6.46-6.53,9,9,0,0,0-9.08-3.55,13.76,13.76,0,0,1-2.87,0,4.39,4.39,0,0,1-1.77-.5,1.89,1.89,0,0,0-2.59.26,1.75,1.75,0,0,0,0,2.48,1.94,1.94,0,0,0,2.6.25,3.33,3.33,0,0,1,1.37-.51c2.1-.06,4.2,0,6.3,0a3.15,3.15,0,0,1,2.53,1.07c2.91,3,5.83,5.95,8.85,8.82a4.27,4.27,0,0,0,2.5,1c2.31.14,4.63.06,6.94,0,5.06,0,10.11-.09,15.16-.11,1.92,0,3.83.11,5.75.11,3.73,0,7.46-.12,11.19-.13,2.23,0,4.47.15,6.7.11a4,4,0,0,1,2.66.52A1.77,1.77,0,0,0,253.41,155Zm-124,70.17h-.06c0,3.61,0,7.22,0,10.82a2.94,2.94,0,0,0,1,2.42c1.32,1.2,2.56,2.49,3.79,3.78a3,3,0,0,1,.78,1.38,1.67,1.67,0,0,0,2,1.56,1.54,1.54,0,0,0,1.63-1.51c.1-1.11-.2-2-1.51-2.17a2.91,2.91,0,0,1-1.39-.77c-1.21-1.13-2.38-2.29-3.49-3.49a2.53,2.53,0,0,1-.68-1.41c-.11-1.37-.1-2.74-.09-4.11,0-5.53,0-11.06.12-16.59a2.89,2.89,0,0,1,.73-1.77c2.12-2.22,4.33-4.35,6.46-6.55a2.91,2.91,0,0,0,.81-1.63c.11-2.37.1-4.74.09-7.11,0-1.41-.12-2.83-.13-4.24,0-5,0-10,0-15,0-1.22-.2-2.49.75-3.65a1.59,1.59,0,0,0-.58-2.28,1.68,1.68,0,0,0-2.35.18,3.39,3.39,0,0,0-.4,2.22c.1,1,.71,2.06.72,3.08,0,4.56-.1,9.11-.14,13.66,0,4,0,8,0,12a2.86,2.86,0,0,1-.73,1.77c-2.08,2.18-4.29,4.25-6.35,6.45a3.43,3.43,0,0,0-.87,2.13C129.32,218,129.37,221.56,129.37,225.17ZM229.51,147.9h7.68c5.46,0,5.44,0,9.3-3.9a4.84,4.84,0,0,1,1.8-1.1,1.89,1.89,0,0,0,1.5-2.1,1.61,1.61,0,0,0-1.64-1.68c-1.08-.09-1.67.48-2.06,1.56-.83,2.28-2.82,3.59-4.61,5-.17.14-.52.1-.79.11-2,0-3.93.07-5.9.07-5.39,0-10.79-.08-16.18,0a2.66,2.66,0,0,1-2.15-.86q-3.21-3.3-6.51-6.5a2.74,2.74,0,0,0-1.52-.77c-1.68-.09-3.36,0-5.05,0-6.89,0-13.79,0-20.68,0-.77,0-1.52-.51-2.29-.54s-2,0-2.29.41a2.87,2.87,0,0,0,0,2.46c.42.8,1.4.85,2.31.39a4.42,4.42,0,0,1,1.76-.52q5.73-.17,11.46-.21c3.79,0,7.57,0,11.35,0,2.17,0,4,.41,5.51,2.27a56.65,56.65,0,0,0,5.12,5.16,2.74,2.74,0,0,0,1.64.78C221.37,147.93,225.44,147.9,229.51,147.9Zm-123,68.95h.09c0-1.19,0-2.38,0-3.57,0-1.52,1.58-3.3,3.1-3.13a5.35,5.35,0,0,0,5.32-2.3c.35-.47.92-.79,1.23-1.28a3.85,3.85,0,0,0,.71-1.81c.06-2,0-3.92-.08-5.88s.18-3.72,1.88-5.23c2.93-2.61,5.54-5.59,8.41-8.27a4.71,4.71,0,0,0,1.5-4.23c-.11-2-.63-4.15.67-6.12a2.08,2.08,0,0,0-.48-2,2.74,2.74,0,0,0-2.34-.11,2.09,2.09,0,0,0-.6,2c1.1,1.46.57,3.1.77,4.63a5.41,5.41,0,0,1-1.81,5.22c-3.13,2.8-6,5.87-8.93,8.92a4.19,4.19,0,0,0-1,2.5c-.09,2.27,0,4.55.12,6.83.08,2.44-2.25,5.23-4.62,5a5.07,5.07,0,0,0-4.78,2.22,3.58,3.58,0,0,0-1,1.67c-.13,2.28-.07,4.57-.11,6.85s-.07,4.65,2.29,6.13a3.08,3.08,0,0,1,1.39,3.31c-.28,1.81.38,3.71-.74,5.47a2.28,2.28,0,0,0,.63,2.08,2.54,2.54,0,0,0,2.13,0,1.53,1.53,0,0,0,.6-2.25c-1.06-1.41-.67-2.91-.58-4.34.17-2.72-.44-5-2.75-6.65a2.85,2.85,0,0,1-1-1.84A32.58,32.58,0,0,1,106.5,216.85Zm-46.67-114v0a16.81,16.81,0,0,0,2.46,0c2.49-.38,3.69,1.41,5,2.91a1.78,1.78,0,0,1,.31,1.4,3.44,3.44,0,0,0,1.4,3.84c.46.37.78,1,1.27,1.24a6.16,6.16,0,0,0,2.52,1c2.91.12,5.82,0,8.74.08a2.92,2.92,0,0,1,1.78.73c2.92,2.83,5.75,5.77,8.68,8.59a3.45,3.45,0,0,0,2,.84c2,.15,4.11.1,6.16.19a4.25,4.25,0,0,1,1.53.44c1,.44,2,.6,2.54-.37a2.82,2.82,0,0,0,0-2.36c-.54-1-1.57-.86-2.54-.35a4.14,4.14,0,0,1-1.64.48c-1.55.1-3.1.08-4.66.12a3.19,3.19,0,0,1-2.55-1c-2.8-2.89-5.64-5.75-8.55-8.53a3.56,3.56,0,0,0-2.14-.91c-3-.1-6,0-9-.08a4.12,4.12,0,0,1-1.86-.85,3.63,3.63,0,0,1-1.63-3.76c.16-1.29-3.23-5.35-4.48-5.59a2.84,2.84,0,0,0-.41,0c-2.42,0-4.85,0-7.27-.09-2.23-.07-4.18.28-5.63,2.26a3.27,3.27,0,0,1-2.24,1,45.2,45.2,0,0,1-5.07-.09,3.36,3.36,0,0,1-1.35-.44c-.94-.55-2-.64-2.56.25a2.77,2.77,0,0,0-.09,2.37c.5.94,1.54,1,2.53.46a4.07,4.07,0,0,1,1.5-.49,21.21,21.21,0,0,1,4.77-.1c2.14.36,3.43-.61,4.7-2a3,3,0,0,1,1.67-1A37.51,37.51,0,0,1,59.83,102.83Zm128.53-5.46h0c0,.6,0,1.19,0,1.79.08,1.74-2,4-3.74,3.83a4.24,4.24,0,0,0-4.17,1.74,6,6,0,0,1-1.06,1.07,2.87,2.87,0,0,0-1,2.41,11.33,11.33,0,0,1-.58,2.57c-.23.92-.36,1.82.58,2.45a1.75,1.75,0,0,0,2.37-.15,1.78,1.78,0,0,0,.21-2.48,2.54,2.54,0,0,1-.24-3c.89-1.09,1.63-2.72,3.47-2.51a4.3,4.3,0,0,0,4.28-1.77,4,4,0,0,1,.87-.87,2.56,2.56,0,0,0,1-2.39c0-3.61,0-7.22-.05-10.83a3.67,3.67,0,0,1,1.17-2.92q7.38-7.28,14.64-14.67a3.64,3.64,0,0,0,.94-2.25c.06-4.06-.08-8.13,0-12.19,0-1.44-.39-3,.76-4.34.26-.31-.18-1.69-.68-2.06a2.24,2.24,0,0,0-2.16.07,2.21,2.21,0,0,0-.55,2.1c.87,1.36.69,2.8.71,4.22.06,3.56,0,7.12,0,10.68A4,4,0,0,1,203.92,71q-7.42,7.33-14.75,14.76a3.08,3.08,0,0,0-.78,1.9C188.31,90.88,188.36,94.13,188.36,97.37Zm-23.48-22c.65,1.6-.52,2.7-1.71,3.85-2.52,2.45-4.9,5.07-7.52,7.41a5.85,5.85,0,0,0-1.94,4.92c0,1.86.29,3.78-.72,5.59a2.21,2.21,0,0,0,.72,2,2.28,2.28,0,0,0,2.18-.13,3,3,0,0,0,.48-2.17c-.07-1-.48-2-.62-3s.11-1.76-.07-2.59a2.7,2.7,0,0,1,.95-2.67Q161.37,84,166,79.25a2.75,2.75,0,0,0,.87-1.59,56.53,56.53,0,0,0-.07-7.25c-.29-2.86,2.55-5.75,5.23-5,1.38.36,5.16-2.81,5.31-4.24a5.09,5.09,0,0,0,0-.55c0-1.54,0-3.08,0-4.62.15-3.12.37-6.2-2.72-8.33a4,4,0,0,1-1-2.37,9.6,9.6,0,0,1,0-2.73,8.8,8.8,0,0,1,.64-2.71c.48-1,.55-2-.4-2.51a2.94,2.94,0,0,0-2.46.07c-.82.51-.75,1.56-.22,2.46a2.85,2.85,0,0,1,.46,1.22c.07,1.6.14,3.2.07,4.79A3.49,3.49,0,0,0,173,49.09c.47.35.8.89,1.27,1.24,1.13.82,1.15,2,1.11,3.18a40.53,40.53,0,0,0,0,5.17,4.51,4.51,0,0,1-4.81,4.73,4.1,4.1,0,0,0-2.52.58,14.63,14.63,0,0,0-2.64,2.58,2.53,2.53,0,0,0-.57,1.46C164.85,70.4,164.88,72.77,164.88,75.41Zm-21,24.11a1.78,1.78,0,0,0,1.6-2.78,3.68,3.68,0,0,1-.52-1.36q-.15-6.21-.19-12.43c0-3.83,0-7.66,0-11.49,0-2.17.23-4.19,2.25-5.65,1.25-.9,2.15-2.26,3.34-3.24A6.79,6.79,0,0,0,153,56.45c-.27-5.39.07-10.79-.08-16.19-.06-2.2.17-4,2-5.41,1.07-.8,1.78-2,3.32-2.25.4-.06.93-1.28.83-1.87a2.14,2.14,0,0,0-1.43-1.45c-.64-.07-1.87.48-1.95.93-.28,1.58-1.39,2.46-2.43,3.35A6.12,6.12,0,0,0,151,39c.25,5.79,0,11.6.12,17.4a5,5,0,0,1-1.75,4.33c-1.73,1.49-3.18,3.29-4.91,4.79a4.75,4.75,0,0,0-1.62,4c.05,4.88.05,9.76.07,14.64,0,2.51.19,5,.05,7.52-.11,1.85.41,3.76-.81,5.57C141.39,98.26,142.48,99.52,143.88,99.52ZM94.37,177c0-.19-.07-.6-.09-1-.08-1.95,2-4.4,4-4.26a3.89,3.89,0,0,0,3.53-1.59c.45-.52,1-.94,1.42-1.49a3,3,0,0,0,.6-1.43c.09-1.41,0-2.83.1-4.25a2.92,2.92,0,0,1,.41-1.39c.6-.94.67-2-.18-2.55a2.8,2.8,0,0,0-2.46,0c-1,.58-.75,1.68-.27,2.67a4.39,4.39,0,0,1,.44,1.63c.06.87,0,1.74,0,2.61,0,1.77-2,3.88-3.72,3.77a3.92,3.92,0,0,0-3.56,1.56c-.4.5-1,.85-1.32,1.38a5.05,5.05,0,0,0-.88,2.16c-.09,1.68.08,3.37.07,5,0,2.05-.21,4.12-.05,6.15a2.52,2.52,0,0,1-.81,2.27c-5.48,5.46-10.93,10.94-16.42,16.39a3.38,3.38,0,0,1-1.51.79,1.71,1.71,0,0,0-1.43,2,1.58,1.58,0,0,0,1.59,1.7,1.75,1.75,0,0,0,2-1.4,4.48,4.48,0,0,1,1-1.73c5.35-5.4,10.7-10.79,16.13-16.11a4.41,4.41,0,0,0,1.45-3.49C94.34,183.33,94.37,180.28,94.37,177Zm78.3,3.44a3,3,0,0,0,1.32,3c.57.45,1,1.09,1.58,1.52a3.27,3.27,0,0,0,1.66.69c4,.09,7.94.06,11.9.17a3.26,3.26,0,0,1,2,.83q8.16,8,16.21,16.18a3.88,3.88,0,0,1,.88,1.62,1.8,1.8,0,0,0,2,1.47,1.62,1.62,0,0,0,1.73-1.57,1.86,1.86,0,0,0-1.35-2.1,6.21,6.21,0,0,1-2.06-1.19c-4.94-4.89-9.9-9.76-14.73-14.76-1.7-1.76-3.29-2.9-6-2.58a75.58,75.58,0,0,1-9.16.08c-1.95,0-4.38-2.15-4.12-4a4.22,4.22,0,0,0-1.8-4.11c-.59-.5-1.06-1.15-1.66-1.62a3.8,3.8,0,0,0-1.43-.61,28.94,28.94,0,0,1-3.13-.66,2,2,0,0,0-2.48.36,1.8,1.8,0,0,0,0,2.5c.71.83,1.59.67,2.48.28a4.63,4.63,0,0,1,1.49-.54C170.26,175.21,172.7,177.82,172.67,180.45ZM149.3,99.58a1.86,1.86,0,0,0,1.51-3,3.39,3.39,0,0,1-.55-1.48c0-2.88-.1-5.76,0-8.64a3.7,3.7,0,0,1,.94-2.25c2.35-2.5,4.84-4.86,7.23-7.33a2.68,2.68,0,0,0,.79-1.61c.08-4.44,0-8.87.14-13.3a3.63,3.63,0,0,1,.89-2.14c1.6-1.75,3.35-3.37,5-5.09a2.34,2.34,0,0,0,.66-1.26c.11-.94-.05-1.92.07-2.87.22-1.67-.27-3.41.76-5a2.21,2.21,0,0,0-.66-2.06,2.53,2.53,0,0,0-2.32.11c-.44.34-.43,1.46-.38,2.21s.49,1.6.57,2.41c.11,1.05-.12,2.14.09,3.15a2.5,2.5,0,0,1-.87,2.54c-1.74,1.69-3.47,3.4-5.14,5.15a2.56,2.56,0,0,0-.67,1.53c-.08,4.43,0,8.86-.15,13.28a3.44,3.44,0,0,1-.88,2.13c-2.36,2.49-4.85,4.87-7.23,7.33a2.74,2.74,0,0,0-.83,1.62c-.08,2.88-.06,5.76,0,8.64a5.14,5.14,0,0,1-.6,3.13A1.8,1.8,0,0,0,149.3,99.58ZM134,182.06h.07c0-1.74,0-3.47,0-5.21a2.82,2.82,0,0,1,.39-1.26,2,2,0,0,0-.22-2.7,1.74,1.74,0,0,0-2.38,0c-.93.76-.83,1.68-.32,2.69a4.6,4.6,0,0,1,.54,1.9c.05,2.84.07,5.67,0,8.5a3.86,3.86,0,0,1-.9,2.27c-1.46,1.63-3.12,3.09-4.61,4.7a3.25,3.25,0,0,0-.8,1.89c-.1,1.59,0,3.2,0,4.8,0,2-2.48,4.95-4.45,5.37a1.59,1.59,0,0,0-1.36,1.75,1.67,1.67,0,0,0,1.27,1.84c1,.29,2-.05,2.17-.9.34-2,1.87-2.87,3.08-4a3.8,3.8,0,0,0,1.25-3.52c-.46-3.47,0-6.57,3.25-8.75a6.47,6.47,0,0,0,3-7.27A9.34,9.34,0,0,1,134,182.06Zm40.92-90.23a5.9,5.9,0,0,1-.28,1.93,6.27,6.27,0,0,1-8.08,2.42c-.86-.45-1.95-.57-2.43.34a2.94,2.94,0,0,0,0,2.46c.48.85,1.51.79,2.43.31a4.06,4.06,0,0,1,1.51-.49c1.27-.1,2.56,0,3.83-.14a2.52,2.52,0,0,0,1.43-.57c3.49-3.22,3.48-3.23,3.55-7.91a2.62,2.62,0,0,1,0-.28c.06-1,2.16-3.39,3.11-3.24,2.24.34,3.54-.91,4.91-2.33a3.44,3.44,0,0,0,1-2.68,4.7,4.7,0,0,1,.47-2.16c.51-.94.57-1.94-.22-2.45a2.87,2.87,0,0,0-2.46-.11c-1,.51-.85,1.67-.38,2.55,1.24,2.3,0,4.89-2.6,5a5,5,0,0,0-4.1,2c-.36.47-.87.82-1.24,1.28a2,2,0,0,0-.49,1.06C174.87,89.76,174.92,90.77,174.92,91.83ZM79.1,124v0a25.45,25.45,0,0,0,3.15,0,2.84,2.84,0,0,1,2.67,1c1,1.15,2.16,2.24,3.3,3.3a2.17,2.17,0,0,0,1.28.61c2.1.06,4.21-.07,6.3,0s4.35-.53,6.41.74a1.51,1.51,0,0,0,2.2-.77,2.4,2.4,0,0,0-.18-2.09,2.45,2.45,0,0,0-2.24-.46,5.18,5.18,0,0,1-3.27.63c-2.15,0-4.31-.07-6.45,0a4.81,4.81,0,0,1-4.08-1.65c-3.54-3.73-3.59-3.6-8.78-3.38-2,.08-4.16.44-6.15-.71a2.16,2.16,0,0,0-2.05.65,2.37,2.37,0,0,0,.13,2.27c.42.46,1.52.41,2.31.35s1.52-.49,2.29-.57C77,123.87,78,124,79.1,124Zm33.24,49.66c-3.13-.29-3.14-.3-5.29,1.85-2.49,2.48-5,4.95-7.44,7.49a3.24,3.24,0,0,0-.93,1.87c-.1,1.49.15,3,.07,4.5s.52,2.91-.54,4.21a1.84,1.84,0,0,0,2.65,2.53,1.82,1.82,0,0,0,.39-2.56,3.81,3.81,0,0,1-.47-1.5c-.11-1.4-.16-2.81-.17-4.22,0-1.89.24-3.56,1.91-4.94,2.17-1.81,4-4,6-6,1.68-1.69,5-2.05,7.26-1a2.49,2.49,0,0,0,2.28-.28,2.62,2.62,0,0,0,.21-2.28c-.35-1-1.4-.87-2.26-.68C114.81,172.92,113.58,173.28,112.34,173.61Zm-9.16-59.82c.49-.53,1.21-1,1.4-1.62a1.7,1.7,0,0,0-1.16-2.27,6.83,6.83,0,0,1-2.25-1.38q-7.92-7.81-15.72-15.73A4.86,4.86,0,0,1,84.39,91a1.77,1.77,0,0,0-2.06-1.35,1.57,1.57,0,0,0-1.6,1.55,1.75,1.75,0,0,0,1.34,2.07,4.34,4.34,0,0,1,1.65.86q8.19,8.11,16.3,16.3a4.15,4.15,0,0,1,1,1.72C101.31,113.1,101.86,113.57,103.18,113.79Z" transform="translate(-25.29 -19.91)"/><path class="cls-1" d="M173.86,251.41c-.51-.26-1-.74-1.52-.75-5.17-.08-10.34-.07-15.5-.14a2.48,2.48,0,0,1-1.53-.67c-3-2.94-6-5.91-8.92-8.94a3,3,0,0,1-.81-1.89c0-7.9,0-15.81,0-23.71,0-2.11.1-4.21,0-6.3a3.17,3.17,0,0,0-1.12-1.91,4.18,4.18,0,0,1-1.56-4.21,30.46,30.46,0,0,0-.07-4.77c0-5.43.09-10.85.12-16.28,0-1.73,0-3.47-.14-5.2a3.27,3.27,0,0,0-.5-1.2c-.47-.9-.59-2,.29-2.45a3,3,0,0,1,2.47,0c.88.47.71,1.43.4,2.42a16.36,16.36,0,0,0-.67,4.34c-.09,3.78-.06,7.57,0,11.35q0,6.36.17,12.71a1.66,1.66,0,0,0,.48,1.19c2.65,1.65,2.21,4.22,2.19,6.73,0,4.7,0,9.4,0,14.1,0,1.73-.11,3.47-.11,5.2,0,2.47,0,4.94.11,7.4a2.59,2.59,0,0,0,.73,1.53q4,4.08,8.06,8.05a2.46,2.46,0,0,0,1.55.62c4.8,0,9.6,0,14.4-.08a2.67,2.67,0,0,0,1.28-.36c1-.61,1.94-.76,2.73.12a1.94,1.94,0,0,1-.11,2.73,2.47,2.47,0,0,0-.19.36Z" transform="translate(-25.29 -19.91)"/><path class="cls-1" d="M25.79,90.17c1.18-.61,2.35-1,3.49.12a1.29,1.29,0,0,0,.78.14l20.57,0c5.76,0,11.52,0,17.28,0a3.49,3.49,0,0,1,1.9.8c.83.65,1.45,1.55,2.28,2.18a3.51,3.51,0,0,1,1.18,3.43,13.58,13.58,0,0,1-.13,2c-.54,2.19.76,3.62,2.3,4.54,1,.62,2.59.43,3.92.58a2.58,2.58,0,0,0,.54-.07c3.09-.4,5.66.17,7.85,2.82a106.78,106.78,0,0,0,8.41,8.48,3.22,3.22,0,0,0,1.89.77c1.4.08,2.82.43,4.18-.55.38-.28,1.71.14,2.06.63a2.25,2.25,0,0,1-.07,2.18c-.38.48-1.74.83-2.1.54-1.44-1.2-3.06-.66-4.57-.67a2.88,2.88,0,0,1-2.3-.83C91.84,113.84,88.38,110.43,85,107a3.23,3.23,0,0,0-2.89-1,55.83,55.83,0,0,1-6.84-.1,1.9,1.9,0,0,1-1-.58c-.71-.65-1.33-1.39-2.06-2a2.72,2.72,0,0,1-.93-2.42,42.52,42.52,0,0,0-.09-4.92c-.09-1.26-2.92-3.44-4.32-3.44H47.36q-8.43,0-16.87,0c-.45,0-1-.06-1.32.19-1.18,1-2.26.59-3.38,0Z" transform="translate(-25.29 -19.91)"/><path class="cls-1" d="M109.58,136V116.23c0-2.29,0-4.57,0-6.86a2.48,2.48,0,0,1,.62-1.53c3.29-3.48,3.31-3.47,8.08-3.46,7.73,0,15.45.06,23.18.06,7.17,0,14.35,0,21.53-.07a17.86,17.86,0,0,0,3,0c3.36-.65,4.61,2.17,6.53,3.87.21.18.19.68.19,1,0,5.8,0,11.6,0,17.41,0,4.2.09,8.4.09,12.6q0,11.65-.12,23.3a2.72,2.72,0,0,1-.67,1.67c-3.16,3.38-3.18,3.39-8,3.4-5.26,0-10.52,0-15.77,0-6.77,0-13.53.05-20.3.06-4.48,0-9,0-13.43-.11a4.12,4.12,0,0,1-1.86-.85c-2.88-1.82-3.37-4.56-3.31-7.75.15-7.68,0-15.36,0-23Zm31.48,27.84h25c1.17,0,2.81-1.2,2.91-2.21a29.83,29.83,0,0,0,.16-3.27c-.05-4.5-.14-9-.18-13.5,0-3.46,0-6.91,0-10.37,0-4,.17-8.09.19-12.14,0-3.73,0-7.47,0-11.21a3.35,3.35,0,0,0-2.79-2.82c-3.64-.07-7.28-.15-10.91-.15-5.11,0-10.21.12-15.31.12-3.87,0-7.74-.1-11.61-.13s-7.66,0-11.48,0a3.62,3.62,0,0,0-3.77,4c.12,1.73.17,3.46.16,5.19,0,4.23-.17,8.47-.16,12.7,0,5.24.15,10.48.15,15.71,0,4.65-.1,9.29-.16,13.93,0,2.61,1.16,4.34,4.09,4.27C125.22,163.69,133.14,163.81,141.06,163.81Z" transform="translate(-25.29 -19.91)"/><path class="cls-1" d="M220.65,102.92c0,2.29.08,4.58,0,6.86a5.23,5.23,0,0,1-1,2.4c-1.78,2.67-4.32,3.21-7.39,2.79a30.9,30.9,0,0,0-6.15.12,2.44,2.44,0,0,0-1.37.77c-2.33,2.27-4.58,4.61-6.93,6.86a3.25,3.25,0,0,1-1.89.85c-2.32.11-4.64.07-7,0-1.92,0-3.83-.18-5.75-.13a7.48,7.48,0,0,0-2.7.65c-.92.4-1.85.48-2.34-.31a2.76,2.76,0,0,1-.19-2.35,2.17,2.17,0,0,1,2.05-.67c1.66,1.13,3.49.63,5.2.73,3.27.18,6.57.06,9.86,0a2.93,2.93,0,0,0,1.77-.74c2.38-2.28,4.65-4.66,7-7a2.85,2.85,0,0,1,1.76-.79c2.69-.09,5.39-.07,8.09,0,3.14,0,4.9-1.7,4.87-4.81-.06-4.44-.09-8.87,0-13.3a3.25,3.25,0,0,1,.85-2c3-3.09,6.13-6,9.07-9.17a4.67,4.67,0,0,1,4-1.45c2,.09,4,0,6,0,1.13,0,3-2.32,3-3.45,0-3.87.06-7.74.16-11.6a2.31,2.31,0,0,1,.74-1.37c2.7-2.74,5.45-5.43,8.13-8.18a4.55,4.55,0,0,0,1-1.83,1.72,1.72,0,0,1,1.94-1.33,1.59,1.59,0,0,1,1.69,1.45c.19,1-.16,1.91-1.09,2.07a5.39,5.39,0,0,0-2.88,1.93c-2.3,2.3-4.62,4.57-6.86,6.92a2.83,2.83,0,0,0-.72,1.77c-.06,3.46,0,6.93,0,10.39a3.28,3.28,0,0,1-1.17,2.78,15,15,0,0,1-1.59,1.51,5.8,5.8,0,0,1-2.52,1.06c-2.18.13-4.37,0-6.56,0a2.19,2.19,0,0,0-1.42.53q-4.66,4.56-9.22,9.23a2.54,2.54,0,0,0-.59,1.56c-.06,2.43,0,4.85,0,7.27Z" transform="translate(-25.29 -19.91)"/><path class="cls-1" d="M119.58,62c0,3-.06,5.72,0,8.41a3.32,3.32,0,0,0,.86,2,85.09,85.09,0,0,0,6.32,6.28,5.6,5.6,0,0,1,1.91,4.68c0,3.79,0,7.58,0,11.36,0,.68.46,1.35.49,2s.09,1.9-.36,2.32a2.43,2.43,0,0,1-2.3.13c-.48-.3-.91-1.71-.63-2.07,1-1.29.7-2.75.75-4.09.13-3.6,0-7.21,0-10.81a2.42,2.42,0,0,0-.74-1.38c-2.14-2.19-4.23-4.45-6.53-6.47a5.36,5.36,0,0,1-1.81-4.45c0-2.24.06-4.47.16-6.7.14-2.79-2.79-5.34-5.58-5.07a60.08,60.08,0,0,1-6.15,0c-2.86,0-5.73,0-8.6-.08a2.9,2.9,0,0,1-1.74-.78q-9.42-9.32-18.74-18.72a3.29,3.29,0,0,0-2.53-1.09c-6,0-12.07,0-18.1.06a4.06,4.06,0,0,0-1.51.49,1.87,1.87,0,0,1-2.47-.32,1.79,1.79,0,0,1,0-2.5,1.94,1.94,0,0,1,2.48-.31,6.18,6.18,0,0,0,2.57.61c6.21,0,12.43,0,18.64,0a3.16,3.16,0,0,1,1.79,1C83.9,42.6,90,48.65,96,54.81a4.89,4.89,0,0,0,4,1.44c4.79-.06,9.58-.12,14.37-.08a3.73,3.73,0,0,1,1.91.85c.69.52,1.2,1.25,1.87,1.81C119.29,59.76,119.94,60.81,119.58,62Z" transform="translate(-25.29 -19.91)"/><path class="cls-1" d="M185.64,54c0-2.74,0-5.48,0-8.22a3.58,3.58,0,0,1,.83-2c1.1-1.28,2.45-2.35,3.54-3.64a4.51,4.51,0,0,1,4-1.64c3.14.11,6.3-.13,9.43.11A4.34,4.34,0,0,0,207.21,37c4.4-4.46,8.86-8.87,13.28-13.32a2.56,2.56,0,0,0,.85-1.33c.13-1.48,1-1.75,2.25-1.68,1.11.06,1.36.83,1.44,1.65a1.79,1.79,0,0,1-1.59,2,3.73,3.73,0,0,0-1.58,1q-7.17,7.09-14.28,14.26a2.84,2.84,0,0,1-2.36,1c-3.87-.12-7.75-.08-11.62,0a2.91,2.91,0,0,0-1.57.66c-.65.49-1.12,1.23-1.78,1.7-2.3,1.63-2.9,3.83-2.7,6.55s.06,5.38.08,8.08c0,1.78,0,3.56.09,5.34a4,4,0,0,1-1.06,2.66,7.33,7.33,0,0,1-7.48,3,3.76,3.76,0,0,0-3.69,1.19,4.2,4.2,0,0,0-1.35,3.49,35.81,35.81,0,0,1,0,5.48,2.64,2.64,0,0,1-.84,1.46c-3.7,3.74-7.43,7.45-11.15,11.17a4.41,4.41,0,0,0-.61,5.12c.66,1,.71,1.87-.22,2.66a1.73,1.73,0,0,1-2.48,0c-.87-.8-.56-1.7-.14-2.74a7.1,7.1,0,0,0,.46-3.41,2.74,2.74,0,0,1,.94-2.53c3.68-3.64,7.31-7.32,11-10.94a3.22,3.22,0,0,0,1.12-2.64c-.09-2,0-3.93.06-5.89a2.54,2.54,0,0,1,.57-1.3c1.7-2.29,3.78-3.58,6.86-3.12a4.62,4.62,0,0,0,4.17-1.07,6,6,0,0,0,1.91-5.1c0-1.05,0-2.1,0-3.15s0-2.1,0-3.16Z" transform="translate(-25.29 -19.91)"/><path class="cls-1" d="M109.56,76.7c-3.15,0-6.3.06-9.45,0A3.44,3.44,0,0,1,98,75.79q-9.33-9.21-18.55-18.52A4,4,0,0,0,76.31,56c-5.48.06-11,0-16.44,0a2.48,2.48,0,0,1-1.22-.5,4.32,4.32,0,0,1-.77-.77c-3.29-3.31-3.29-3.31-7.94-3.28-2.47,0-4.94,0-7.4.11a5.14,5.14,0,0,0-1.77.52,1.85,1.85,0,0,1-2.45-.4,1.73,1.73,0,0,1,0-2.38,2,2,0,0,1,2.47-.45,9.15,9.15,0,0,0,3.08.67c3.61,0,7.21-.06,10.82,0a3.07,3.07,0,0,1,1.55.68,5,5,0,0,1,1.25,1.26C59,53.7,61.28,54.06,63.88,54c4.57-.13,9.14-.11,13.71,0a3.55,3.55,0,0,1,2.26.93Q89.09,64,98.2,73.19a4.15,4.15,0,0,0,3.33,1.42q5.34-.15,10.67,0a3.9,3.9,0,0,1,2.38,1c2.66,2.51,5.24,5.11,7.77,7.75a3.28,3.28,0,0,1,.82,2c.07,3.32,0,6.64,0,10a2.42,2.42,0,0,0,.52,1.19,1.89,1.89,0,0,1-2.59,2.7,1.66,1.66,0,0,1-.48-2.43,4.38,4.38,0,0,0,.56-3.09c-.07-2.36.14-4.74.09-7.11a3.49,3.49,0,0,0-.82-2.15c-2-2.15-4.15-4.14-6.17-6.26-1-1.09-2-1.93-3.64-1.5A4.49,4.49,0,0,1,109.56,76.7Z" transform="translate(-25.29 -19.91)"/><path class="cls-1" d="M62.84,167.11c0,5.08,0,9.55-.05,14a3.23,3.23,0,0,1-1,1.94C52.88,192,43.93,200.94,35,209.9a11.16,11.16,0,0,0-1.58,2.57,1.7,1.7,0,0,1-2.14,1A2.8,2.8,0,0,1,29.85,212c-.31-.91.27-1.6,1.14-2.06a10.82,10.82,0,0,0,2.58-1.62Q46.82,195.17,60,181.92a3.2,3.2,0,0,0,.79-2c.11-4.88.27-9.77.1-14.65a4.57,4.57,0,0,1,1.87-4.06,6.24,6.24,0,0,0,.68-.68,3.75,3.75,0,0,1,3.5-1.57,49.17,49.17,0,0,0,7.38-.11,3.16,3.16,0,0,0,1.89-.8c2.86-2.76,5.68-5.58,8.45-8.43a3.05,3.05,0,0,1,2.41-1c3.23,0,6.48.1,9.71,0,1.87-.07,3.79.24,5.61-.74a2.2,2.2,0,0,1,2,.76,2.31,2.31,0,0,1-.18,2.18c-.4.45-1.44.48-2.19.43-.9-.06-1.79-.57-2.69-.59-3.75-.07-7.49,0-11.24,0a3.13,3.13,0,0,0-2.5,1.07c-2.72,2.79-5.46,5.54-8.27,8.23a3.5,3.5,0,0,1-2.11,1c-2.73.09-5.46,0-8.19,0a4.35,4.35,0,0,0-1.4.43c-.12,0-.18.2-.29.28C63.2,163.1,62.13,165.05,62.84,167.11Z" transform="translate(-25.29 -19.91)"/><path class="cls-1" d="M241.8,213.72a10.65,10.65,0,0,1,0,2.33c-.48,2.18.51,3.62,2,5s3,3.07,4.6,4.52a9.34,9.34,0,0,0,2.47,1.52,1.69,1.69,0,0,1,1.13,2.19,2.72,2.72,0,0,1-1.69,1.45c-.89.23-1.61-.31-1.93-1.32a4.8,4.8,0,0,0-1-1.84q-3.28-3.42-6.7-6.7a2.83,2.83,0,0,1-1-2.28c.05-2.37,0-4.75.1-7.13a4,4,0,0,0-1.23-3.16c-1.5-1.61-2.95-2.62-5.4-2.31-2.82.36-5.72,0-8.59.12a3.89,3.89,0,0,1-3.12-1.32c-7-7.08-14.14-14.07-21.1-21.21a5.29,5.29,0,0,0-4.52-1.54c-1.41.06-2.83.16-4.24.12a2.43,2.43,0,0,1-1.46-.6c-1.67-1.48-3.27-2.9-2.66-5.64a19.77,19.77,0,0,0,0-5.32,2.2,2.2,0,0,0-.6-1.31q-3.26-3.33-6.61-6.58a2.34,2.34,0,0,0-1.18-.51,1.85,1.85,0,0,1,.19-3.65,1.77,1.77,0,0,1,2,1.4,4.2,4.2,0,0,0,1,1.72q3.09,3.21,6.29,6.31a2.84,2.84,0,0,1,.93,2.42c-.1,2.33,0,4.66,0,7,0,1.25,2.1,2.74,3.37,2.72,2.19-.05,4.38,0,6.56.15.46,0,.94.51,1.31.88Q211.71,192,222.6,203a3,3,0,0,0,2.41,1c3.56,0,7.12-.08,10.67,0a8,8,0,0,1,2.52,1s.06.07.1.1A8,8,0,0,1,241.8,213.72Z" transform="translate(-25.29 -19.91)"/><path class="cls-1" d="M176.16,214.37c2.65,0,5.31,0,8,0a2.52,2.52,0,0,1,1.51.72q13.49,13.41,26.92,26.86a4.91,4.91,0,0,0,2.79,1.83,1.45,1.45,0,0,1,1,2.05,2.67,2.67,0,0,1-1.47,1.41,1.58,1.58,0,0,1-2.06-1.08,7.2,7.2,0,0,0-1.35-2.27c-8.61-8.66-17.33-17.22-25.85-26-1.74-1.79-3.6-1.65-5.61-1.68-2.69,0-5.39,0-8.08,0-1.41,0-2.84.19-4.24.09a4.79,4.79,0,0,1-2.16-.88,6.49,6.49,0,0,1-2.87-6.79,36,36,0,0,0-.08-6.56,2.6,2.6,0,0,0-.71-1.51c-2.42-2.5-4.92-4.92-7.33-7.42a2.86,2.86,0,0,1-.75-1.76c-.08-3.69.07-7.4-.1-11.08-.08-1.76.38-3.6-.69-5.31a1.48,1.48,0,0,1,.62-2.23,3.14,3.14,0,0,1,2.37.25c.8.5.71,1.46.25,2.33a4.34,4.34,0,0,0-.6,1.76c0,4.42,0,8.85.08,13.27a3.13,3.13,0,0,0,.85,1.88A87.81,87.81,0,0,0,163,198.7c1.72,1.48,1.81,3.18,1.72,5.16-.11,2.49-.05,5,0,7.5,0,1,2.32,2.93,3.3,2.94,2.7,0,5.39,0,8.09,0Z" transform="translate(-25.29 -19.91)"/><path class="cls-1" d="M180.43,196.74c3.11,0,6.22,0,9.33,0a4.2,4.2,0,0,1,3.25,1.36c5.68,5.78,11.52,11.39,17.11,17.26a6.91,6.91,0,0,0,5.65,2.24c1.92-.05,3.84-.17,5.75-.09a4,4,0,0,1,2,.84c.77.57,1.31,1.43,2.08,2a4.48,4.48,0,0,1,1.72,4.18c-.09,2.45-.1,4.91-.08,7.37,0,.39.36.79.57,1.17.53.93.7,2-.24,2.56a2.88,2.88,0,0,1-2.48,0c-.92-.52-.89-1.59-.28-2.54a2.27,2.27,0,0,0,.44-1.1c0-2.64.06-5.28,0-7.91a4.32,4.32,0,0,0-.86-2c-1.44-2.2-3.51-2.86-6.09-2.6a37.27,37.27,0,0,1-6.16,0,3,3,0,0,1-1.68-1c-6.17-6.12-12.34-12.25-18.43-18.45a4.4,4.4,0,0,0-3.52-1.37c-2.78.05-5.56,0-8.35.05-3.51,0-7,.11-10.52.09a2.69,2.69,0,0,1-1.67-.72c-2.72-2.65-5.41-5.33-8.05-8.07a3,3,0,0,1-.83-1.89c0-3.55.1-7.1.1-10.65a4.1,4.1,0,0,0-.59-1.89,1.92,1.92,0,0,1,.21-2.61,1.81,1.81,0,0,1,2.51-.09,2,2,0,0,1,.27,2.61,2.91,2.91,0,0,0-.4,1.25c0,3.6,0,7.2,0,10.8a2.12,2.12,0,0,0,.53,1.31c2.39,2.46,4.8,4.9,7.28,7.28a2.72,2.72,0,0,0,1.71.58C173.94,196.77,177.19,196.74,180.43,196.74Z" transform="translate(-25.29 -19.91)"/><path class="cls-1" d="M58.21,212.78a1.22,1.22,0,0,0,0-.27c-.83-3.59.8-6,3.37-8.39C67,199,72.21,193.66,77.41,188.32a4.17,4.17,0,0,0,1.06-2.64c0-5.1-.06-10.21-.09-15.32,0-1.46,0-2.93.11-4.38a2.2,2.2,0,0,1,.61-1.29c3.27-3.33,6.55-6.66,9.91-9.89a3.77,3.77,0,0,1,2.33-.77c2.87-.09,5.74,0,8.61-.05a4.14,4.14,0,0,0,1.75-.56,1.87,1.87,0,0,1,2.59.32,1.76,1.76,0,0,1,0,2.39c-.73.87-1.54.83-2.57.39a8.08,8.08,0,0,0-3-.61c-2.46,0-4.93.06-7.39.16a2.14,2.14,0,0,0-1.29.59c-3,2.91-5.93,5.84-8.84,8.83a2.9,2.9,0,0,0-.71,1.78q-.08,9.79,0,19.59a3.29,3.29,0,0,1-1.07,2.53c-6.08,6-12.1,12.1-18.19,18.11a3.62,3.62,0,0,0-1.15,2.92c.08,2.42.14,4.85.05,7.27a5.64,5.64,0,0,1-.89,2.16c-.16.31-.56.49-.75.79-2.1,3.24-5.27,3.24-8.61,3a40.08,40.08,0,0,0-5,.07,2.51,2.51,0,0,0-1,.48c-.87.52-1.87.51-2.31-.32a2.87,2.87,0,0,1-.06-2.46c.29-.46,1.5-.47,2.29-.43s1.52.51,2.28.54c2.46.07,4.92.08,7.37,0a4.39,4.39,0,0,0,2-.8c2.32-1.5,3-3.72,2.69-6.37a12.65,12.65,0,0,1,0-1.51Z" transform="translate(-25.29 -19.91)"/><path class="cls-1" d="M201.07,96.37c0-2.93,0-5.85,0-8.78a3.18,3.18,0,0,1,.83-2q9.54-9.66,19.21-19.23a3.13,3.13,0,0,0,1-2.52c-.08-2.56,0-5.12,0-7.68a2.43,2.43,0,0,1,0-.27c.18-1.49,4.34-4.72,5.84-4.69,2.92,0,5.84,0,8.76-.07a3.67,3.67,0,0,0,1.21-.53,1.84,1.84,0,0,1,2.46.43,1.72,1.72,0,0,1,0,2.38,2,2,0,0,1-2.47.41,11.28,11.28,0,0,0-3.24-.68,50,50,0,0,0-5.87,0,4.86,4.86,0,0,0-2.31.83,5.23,5.23,0,0,0-2.36,5.52,31.88,31.88,0,0,1,0,6,2.34,2.34,0,0,1-.69,1.39q-9.52,9.6-19.13,19.12A4.16,4.16,0,0,0,203,89.41c.1,5.44-.06,10.88,0,16.32a4.24,4.24,0,0,1-1.47,3.43c-2.81,2.69-5.49,5.51-8.31,8.2a3.36,3.36,0,0,1-2,.69c-2.46.11-4.92.09-7.38.12-1.23,0-2.45-.32-3.62.64a1.58,1.58,0,0,1-2.27-.6,1.67,1.67,0,0,1,.19-2.36c.55-.4,1.79-.67,2.18-.34,1.29,1.09,2.7.59,4.06.65,2,.1,4,.1,6,0a3.24,3.24,0,0,0,1.93-.74q4.05-3.9,8-8a2.93,2.93,0,0,0,.79-1.78C201.12,102.59,201.07,99.48,201.07,96.37Z" transform="translate(-25.29 -19.91)"/><path class="cls-1" d="M234.51,132.47H219a3.88,3.88,0,0,0-3.33,1.21,2.47,2.47,0,0,1-1.68.68c-4.92,0-9.85-.09-14.78-.09-3.79,0-7.57.1-11.36.13-1.69,0-3.38-.11-5.07,0-.8,0-1.59.54-2.4.6a3.7,3.7,0,0,1-2.24-.34,1.48,1.48,0,0,1-.2-2.29c.49-.48,1.61-1,2.05-.73,1.81,1,3.71.74,5.59.79,2.63.07,5.27,0,7.91,0,5,0,9.93-.09,14.9-.12,1.09,0,2.19,0,3.28.14a4.22,4.22,0,0,0,3.92-1.4,2.31,2.31,0,0,1,1.62-.48c8,0,16,0,24,0,2.61,0,5.21-.05,7.82,0a4,4,0,0,0,2.77-1.12c1.81-1.42,2.08-3.18,2-5.31-.16-3.93-.05-7.86-.1-11.79,0-.6-.41-1.18-.45-1.78a4.15,4.15,0,0,1,.18-2.38c.29-.43,1.41-.52,2.1-.41,1,.17,1.38,1.81.79,2.82a3.62,3.62,0,0,0-.53,1.59c0,4.89,0,9.78,0,14.67a3.85,3.85,0,0,1-1.09,2.65,7.68,7.68,0,0,1-7.33,3c-4.26-.34-8.58-.08-12.87-.08Z" transform="translate(-25.29 -19.91)"/><path class="cls-1" d="M134.05,83.94c0,3.61,0,7.22,0,10.83a5.25,5.25,0,0,0,.56,1.9c.4.93.53,1.9-.4,2.42a2.9,2.9,0,0,1-2.22.14,1.55,1.55,0,0,1-.59-2.35c.87-1.15.66-2.35.67-3.54,0-5.76,0-11.52,0-17.28,0-2-.26-3.68-2-5.06s-3-3.18-4.72-4.59a5.56,5.56,0,0,1-2-5.17c.16-2,0-4,0-6,0-4.39.09-8.77.11-13.15a2.05,2.05,0,0,0-.33-1.28c-1.45-1.81-3-3.2-5.69-3-3.45.23-6.93.09-10.39.11a3.58,3.58,0,0,1-2.89-1.22c-1.56-1.73-3.23-3.37-5-5a13.17,13.17,0,0,0-2.56-1.61A1.91,1.91,0,0,1,95.59,28a1.56,1.56,0,0,1,1.78-1.5,3.67,3.67,0,0,1,1.83,1.28c.52.58.71,1.45,1.23,2,1.46,1.58,3.13,3,4.51,4.61a4.71,4.71,0,0,0,4,1.56c1.14,0,2.28-.13,3.41-.13,2.82,0,5.65,0,8.47,0h.13c1.09.17,4.59,4.15,4.59,5.26,0,5.35-.06,10.7-.08,16,0,1.88,0,3.75.1,5.62a2.63,2.63,0,0,0,.79,1.49c2.24,2.3,4.56,4.5,6.76,6.83a3.49,3.49,0,0,1,.87,2.12c.09,3.57,0,7.13,0,10.7Z" transform="translate(-25.29 -19.91)"/><path class="cls-1" d="M155.92,225.17c0-5.12,0-10.24,0-15.35a3.28,3.28,0,0,0-.82-2c-1.9-2-3.89-4-5.9-5.93a2.83,2.83,0,0,1-.92-2.29q.07-11.12,0-22.22a4.33,4.33,0,0,0-.54-1.87A1.94,1.94,0,0,1,148,173a1.8,1.8,0,0,1,2.38-.2,1.68,1.68,0,0,1,.56,2.41c-.79,1.07-.61,2.13-.61,3.26,0,5.25,0,10.51-.06,15.77,0,1.64,0,3.29.1,4.93a2.9,2.9,0,0,0,.78,1.64q2.9,3,5.91,5.93a2.85,2.85,0,0,1,1,2.27c-.05,7.35-.06,14.71-.08,22.07a4.5,4.5,0,0,0,4,4.1c5.34,0,10.68-.09,16-.18a2.2,2.2,0,0,0,1.3-.58c.95-.85,1.85-1.77,2.72-2.71a2.68,2.68,0,0,0,.69-1.28,1.68,1.68,0,0,1,2-1.58,1.56,1.56,0,0,1,1.64,1.63,1.75,1.75,0,0,1-1.52,2,3.2,3.2,0,0,0-1.74,1.17c-2.12,3.06-5.06,3.68-8.56,3.51-4.51-.23-9-.06-13.56-.16a3.25,3.25,0,0,1-2-.82c-2.93-2.77-2.9-2.79-2.9-6.8Z" transform="translate(-25.29 -19.91)"/><path class="cls-1" d="M234.84,187.92c-5.76,0-11.53,0-17.29,0a2.07,2.07,0,0,1-1.3-.56c-2.32-2.27-4.62-4.56-6.88-6.9a2.45,2.45,0,0,1-.59-1.41,15.2,15.2,0,0,1-.12-3.56c.42-2.83-1.88-3.9-3.48-5.24-.72-.6-2.2-.31-3.34-.35s-2.1.1-3.14,0a2.66,2.66,0,0,1-1.51-.73q-6.1-6-12.15-12.11a4.17,4.17,0,0,0-4.49-.62,2.88,2.88,0,0,1-2.44-.2,1.69,1.69,0,0,1,0-2.56,2,2,0,0,1,2.51-.27,5.18,5.18,0,0,0,2.27.53A3.68,3.68,0,0,1,186,155c3.51,3.61,7.21,7,10.62,10.74,1.54,1.67,3.2,2.62,5.35,2.23,3.24-.6,5.42.79,7.41,3.13.93,1.09,1.65,2,1.36,3.49-.64,3.07.48,5.38,2.92,7.22a13.08,13.08,0,0,1,2.52,2.52,4.69,4.69,0,0,0,4.21,1.72q7.62-.1,15.23-.11c5.35,0,10.7,0,16,0a5,5,0,0,0,2-.55,1.85,1.85,0,0,1,2.56.43,2.66,2.66,0,0,1,0,2.35c-.55.88-1.61.85-2.56.35a2.94,2.94,0,0,0-1.24-.48c-5.85,0-11.71,0-17.56,0Z" transform="translate(-25.29 -19.91)"/><path class="cls-1" d="M127.52,33.89a18.76,18.76,0,0,1-2.82,0,3.67,3.67,0,0,1-1.9-.82c-2.63-2.54-5.17-5.17-7.8-7.72a4.71,4.71,0,0,0-1.84-1,1.72,1.72,0,0,1-1.36-1.93c.08-.84.38-1.59,1.45-1.68s1.84.09,2.24,1.25a5.61,5.61,0,0,0,1.17,2c2.25,2.35,4.54,4.65,6.9,6.88a3.74,3.74,0,0,0,2.13.92c1.86.16,3.74.07,5.61.17a5.21,5.21,0,0,1,1.56.61s.07.06.1.09c3.43,3.33,3.42,3.33,3.39,8.14,0,3.51,0,7,0,10.54,0,3.79-.1,7.58-.05,11.37a2.8,2.8,0,0,0,.84,2c2,1.53,2.41,3.43,2.3,5.87-.18,4.22.08,8.47.08,12.71,0,3.78-.13,7.56-.13,11.34a4.22,4.22,0,0,0,.59,1.9,2,2,0,0,1-.22,2.61,1.79,1.79,0,0,1-2.5.08c-.85-.7-.7-1.67-.29-2.62a4.5,4.5,0,0,0,.41-1.67c0-3.5,0-7,0-10.52,0-4.69.1-9.38.17-14.07,0-1.47-.2-2.84-1.53-3.72-1.56-1-1.79-2.58-1.78-4.29,0-8,.07-16.08,0-24.12a4.38,4.38,0,0,0-.87-2.13C132,33.86,129.86,33.44,127.52,33.89Z" transform="translate(-25.29 -19.91)"/><path class="cls-1" d="M52.49,141.83c4.62,0,9.24,0,13.86,0a3.24,3.24,0,0,0,2.23-.95c2-2.62,4.53-3.32,7.75-3.21,7.62.24,15.25.16,22.87.16a6.92,6.92,0,0,0,2.57-.65c.89-.37,1.84-.54,2.35.27a3.19,3.19,0,0,1,.24,2.37,1.47,1.47,0,0,1-2.22.63c-1.72-1.07-3.58-.59-5.34-.69-3.72-.22-7.47-.11-11.21-.08-4,0-8,.09-12,.22a2.29,2.29,0,0,0-1.63.72c-2.07,2.89-4.83,3.36-8.22,3.25-7.54-.24-15.09.21-22.62-.1-3.11-.12-4.3,1.86-6,3.51a1.81,1.81,0,0,0-.26,1.16c0,4.39,0,8.78.11,13.17,0,.77.49,1.53.53,2.3s.06,1.9-.41,2.33a2.36,2.36,0,0,1-2.28.11,2.19,2.19,0,0,1-.58-2.09c1.08-1.68.63-3.48.69-5.2.13-3.88,0-7.78.07-11.66a2.73,2.73,0,0,1,.65-1.67c3.63-3.87,3.64-3.87,9-3.92,1.64,0,3.29.06,4.94.07h4.93Z" transform="translate(-25.29 -19.91)"/><path class="cls-1" d="M241.8,109.08c0,2.43.06,4.85,0,7.27a4.59,4.59,0,0,1-.83,2c-.34.53-1,.87-1.32,1.39-1.82,2.72-4.48,2.69-7.3,2.41-1.53-.15-3.09.06-4.64,0-2.23,0-4.47-.07-6.7-.09-2.64,0-5.27,0-7.91,0a3,3,0,0,0-1.78.74c-1.77,1.65-3.42,3.44-5.19,5.09a3.09,3.09,0,0,1-1.86.84c-5.76.08-11.52.06-17.27.07-1.69,0-3.39,0-5.07.1-.5,0-1,.54-1.47.55a4.11,4.11,0,0,1-2.36-.42,1.5,1.5,0,0,1-.06-2.3c.55-.47,1.8-.87,2.22-.57,1.21.86,2.42.61,3.68.62,5.25,0,10.51,0,15.76.07a32.78,32.78,0,0,0,3.84-.12,3,3,0,0,0,1.63-.82c1.76-1.67,3.41-3.45,5.19-5.1a3.13,3.13,0,0,1,1.91-.78c5.19-.06,10.38,0,15.57,0,2.47,0,4.93.07,7.39,0a4.76,4.76,0,0,0,2-.86c2.92-1.77,2.72-4.64,2.65-7.5s0-5.67-.06-8.5a4.2,4.2,0,0,0-.84-2.17,14.54,14.54,0,0,0-2.31-2.33,5.26,5.26,0,0,0-1.72-1,1.81,1.81,0,0,1-1.42-2,1.69,1.69,0,0,1,1.68-1.67,1.87,1.87,0,0,1,2,1.44,5.16,5.16,0,0,0,1.55,2.27c2.64,1.88,3.36,4.42,3.07,7.47A37.82,37.82,0,0,0,241.8,109.08Z" transform="translate(-25.29 -19.91)"/><path class="cls-1" d="M42.17,158.8c0,4.79,0,9.58,0,14.36a2.81,2.81,0,0,0,.36,1.28c.52,1,.7,2.08-.3,2.65A2.76,2.76,0,0,1,39.8,177c-.87-.58-.52-1.57-.21-2.58a15.88,15.88,0,0,0,.56-4.52c0-4.29,0-8.58-.08-12.87,0-.09,0-.21,0-.27.83-1,1.65-2,2.53-3s1.71-1.88,3.36-1.63a35.63,35.63,0,0,0,5.06,0c5.11,0,10.23,0,15.35.11A4.48,4.48,0,0,0,70,150.79c2.19-2.34,4.48-4.58,6.8-6.79a3,3,0,0,1,1.87-.83c7.14,0,14.27,0,21.4,0a3.84,3.84,0,0,0,1.5-.49c1-.46,2-.66,2.72.3a1.73,1.73,0,0,1,0,2.37c-.78.91-1.65.68-2.7.28a10.13,10.13,0,0,0-3.56-.5c-5.9-.05-11.79,0-17.69,0a3.67,3.67,0,0,0-2.92,1.17q-3.48,3.62-7.1,7.08a3.25,3.25,0,0,1-2,.83c-7.22,0-14.45,0-21.67,0C44.6,154.1,42,156.72,42.17,158.8Z" transform="translate(-25.29 -19.91)"/><path class="cls-1" d="M207.4,163.15c-2.58,0-4.91.06-7.23,0a2.93,2.93,0,0,1-1.75-.83c-3.66-3.59-7.27-7.23-10.9-10.84-.31-.31-.71-.76-1.08-.77-2,0-4.12-.66-6.13.53a2.21,2.21,0,0,1-2.13-.41,2.52,2.52,0,0,1-.14-2.31,2.18,2.18,0,0,1,2.11-.57c1.86,1.07,3.84.47,5.75.66a4.22,4.22,0,0,1,3,1.23c3.37,3.48,6.88,6.84,10.24,10.33a3.75,3.75,0,0,0,3,1.15c2.46,0,4.92,0,7.38,0h.13c1.08.13,5.06,4.2,4.93,5.26-.42,3.18,1.95,4.67,3.79,6.48a1.56,1.56,0,0,0,1,.31c5.44,0,10.88,0,16.32.07a2.83,2.83,0,0,0,2.6-1.2c1.45-2.17,3.55-2.18,5.83-2,1.61.12,3.3.56,4.86-.63a2.22,2.22,0,0,1,2.12.48,2.46,2.46,0,0,1,0,2.3,2.19,2.19,0,0,1-2.1.57c-1.44-1-3-.46-4.5-.75-2.38-.46-4.19.48-5.71,2.34a3,3,0,0,1-2.12.89q-8.85.09-17.69,0a4,4,0,0,1-2.14-.88c-.77-.55-1.32-1.4-2.06-2-1.52-1.2-2.43-2.57-2.11-4.64A3,3,0,0,0,212,166a14.52,14.52,0,0,0-1.34-1.38C209.75,163.57,208.73,162.7,207.4,163.15Z" transform="translate(-25.29 -19.91)"/><path class="cls-1" d="M62.21,78.94c-5.4,0-10.79,0-16.18,0-.55,0-1.09.45-1.64.48-.79,0-1.82.14-2.3-.29a2.52,2.52,0,0,1-.31-2.2,1.49,1.49,0,0,1,2.2-.74c1.94,1.14,4,.65,6,.7,4.93.13,9.87,0,14.8,0s9.87,0,14.8.08a2.55,2.55,0,0,1,1.5.74c2.75,2.69,5.42,5.45,8.2,8.1a3.74,3.74,0,0,0,2.26,1c4.15.11,8.32.12,12.47.08A3,3,0,0,1,106.76,88a2.23,2.23,0,0,0,.48.49c1.79,1.21,2.18,3,2.08,5a3.35,3.35,0,0,0,3.25,3.27c1.14-.07,2.25-.57,3.38-.66a3,3,0,0,1,2.21.45,2.67,2.67,0,0,1,.23,2.22,1.51,1.51,0,0,1-2.22.69c-1.42-.93-2.91-.65-4.38-.66-1.21,0-1.85-.73-2.67-1.38a4.86,4.86,0,0,1-2-4.63,4,4,0,0,0-3.67-3.93q-6.37-.1-12.75,0a2.79,2.79,0,0,1-2.3-.87c-2.66-2.71-5.33-5.42-8.07-8A3.41,3.41,0,0,0,78.24,79c-5.34-.08-10.69,0-16,0Z" transform="translate(-25.29 -19.91)"/><path class="cls-1" d="M104.73,133.32A1.82,1.82,0,0,1,102,135a4.93,4.93,0,0,0-3.24-.62c-2.37.1-4.75,0-7.13,0-3.64,0-7.28,0-10.93,0-3,0-5.93,0-8.89-.06a2.25,2.25,0,0,1-1.23-.75c-1.77-1.73-3.47-3.53-5.27-5.21a3.14,3.14,0,0,0-1.89-.79c-6.58-.06-13.16,0-19.74-.07A4.37,4.37,0,0,0,40.14,129c-2.28,2.44-4.72,4.72-7,7.12a5.11,5.11,0,0,0-1,1.72,1.86,1.86,0,0,1-2,1.45,1.62,1.62,0,0,1-1.62-1.57,1.92,1.92,0,0,1,1.29-2.15A7.39,7.39,0,0,0,32,134.17c2.67-2.58,5.23-5.26,7.9-7.82a3,3,0,0,1,1.91-.76q11.39-.06,22.77,0a2.63,2.63,0,0,1,1.63.74c1.7,1.6,3.4,3.21,5,4.94,1.33,1.5,3.07,1,4.59,1,4.69.11,9.39-.06,14.08-.09,3.28,0,6.56,0,9.84,0a6,6,0,0,0,2.18-.54A1.89,1.89,0,0,1,104.73,133.32Z" transform="translate(-25.29 -19.91)"/><path class="cls-1" d="M96.24,211.69c0,4.09,0,8.15,0,12.21,0,4.39-.11,8.78-.09,13.16a6.75,6.75,0,0,0,.61,2.43,2,2,0,0,1-.32,2.49,1.79,1.79,0,0,1-2.5,0c-.82-.68-.68-1.57-.34-2.49a6,6,0,0,0,.54-2c.07-8.32.15-16.64.06-25,0-2.57,0-4.74,2.17-6.75A6.5,6.5,0,0,1,102,204a5.05,5.05,0,0,0,5.73-5.74,16.28,16.28,0,0,1-.06-3.69,3.19,3.19,0,0,1,1-1.72c3.82-3.88,7.69-7.72,11.54-11.57a5,5,0,0,0,.57-5.72,1.89,1.89,0,0,1,2.71-2.61,2,2,0,0,1,.3,2.62,5,5,0,0,0-.48,2.26,5.72,5.72,0,0,1-1.77,5.13c-3.77,3.47-7.32,7.18-10.91,10.84a2.93,2.93,0,0,0-.81,1.75c-.11,1.67,0,3.35,0,5a5.15,5.15,0,0,1,0,.68c-.23,1.76-4.45,5-6.19,4.8a13,13,0,0,0-3.4-.1,5.57,5.57,0,0,0-2.14,1.31C96.62,208.37,95.57,209.7,96.24,211.69Z" transform="translate(-25.29 -19.91)"/><path class="cls-1" d="M253.41,155a1.77,1.77,0,0,1-2.8,1.54A4,4,0,0,0,248,156c-2.23,0-4.47-.11-6.7-.11-3.73,0-7.46.11-11.19.13-1.92,0-3.83-.12-5.75-.11-5.05,0-10.1.08-15.16.11-2.31,0-4.63.1-6.94,0a4.27,4.27,0,0,1-2.5-1c-3-2.87-5.94-5.84-8.85-8.82a3.15,3.15,0,0,0-2.53-1.07c-2.1.06-4.2,0-6.3,0a3.33,3.33,0,0,0-1.37.51,1.94,1.94,0,0,1-2.6-.25,1.75,1.75,0,0,1,0-2.48,1.89,1.89,0,0,1,2.59-.26,4.39,4.39,0,0,0,1.77.5,13.76,13.76,0,0,0,2.87,0,9,9,0,0,1,9.08,3.55,69.81,69.81,0,0,0,6.46,6.53,2.06,2.06,0,0,0,1.24.68c2.73.06,5.46,0,8.19,0,4.79,0,9.57.1,14.36.12,1.59,0,3.18-.13,4.78-.12,5.24,0,10.48.09,15.73.11,1.37,0,2.74,0,4.1-.15a3.65,3.65,0,0,0,1.34-.53A1.82,1.82,0,0,1,253.41,155Z" transform="translate(-25.29 -19.91)"/><path class="cls-1" d="M129.37,225.17c0-3.61-.05-7.22,0-10.83a3.43,3.43,0,0,1,.87-2.13c2.06-2.2,4.27-4.27,6.35-6.45a2.86,2.86,0,0,0,.73-1.77c.06-4,0-8,0-12,0-4.55.17-9.1.14-13.66,0-1-.62-2-.72-3.08a3.39,3.39,0,0,1,.4-2.22,1.68,1.68,0,0,1,2.35-.18,1.59,1.59,0,0,1,.58,2.28c-1,1.16-.73,2.43-.75,3.65-.07,5,0,10,0,15,0,1.41.13,2.83.13,4.24,0,2.37,0,4.74-.09,7.11a2.91,2.91,0,0,1-.81,1.63c-2.13,2.2-4.34,4.33-6.46,6.55a2.89,2.89,0,0,0-.73,1.77c-.09,5.53-.1,11.06-.12,16.59,0,1.37,0,2.74.09,4.11a2.53,2.53,0,0,0,.68,1.41c1.11,1.2,2.28,2.36,3.49,3.49a2.91,2.91,0,0,0,1.39.77c1.31.22,1.61,1.06,1.51,2.17a1.54,1.54,0,0,1-1.63,1.51,1.67,1.67,0,0,1-2-1.56,3,3,0,0,0-.78-1.38c-1.23-1.29-2.47-2.58-3.79-3.78a2.94,2.94,0,0,1-1-2.42c.05-3.6,0-7.21,0-10.82Z" transform="translate(-25.29 -19.91)"/><path class="cls-1" d="M229.51,147.9c-4.07,0-8.14,0-12.21,0a2.74,2.74,0,0,1-1.64-.78,56.65,56.65,0,0,1-5.12-5.16c-1.49-1.86-3.34-2.28-5.51-2.27-3.78,0-7.56,0-11.35,0s-7.64.1-11.46.21a4.42,4.42,0,0,0-1.76.52c-.91.46-1.89.41-2.31-.39a2.87,2.87,0,0,1,0-2.46c.31-.45,1.5-.45,2.29-.41s1.52.53,2.29.54c6.89.05,13.79,0,20.68,0,1.69,0,3.37-.06,5.05,0a2.74,2.74,0,0,1,1.52.77q3.3,3.19,6.51,6.5a2.66,2.66,0,0,0,2.15.86c5.39,0,10.79,0,16.18,0,2,0,3.93,0,5.9-.07.27,0,.62,0,.79-.11,1.79-1.45,3.78-2.76,4.61-5,.39-1.08,1-1.65,2.06-1.56a1.61,1.61,0,0,1,1.64,1.68,1.89,1.89,0,0,1-1.5,2.1,4.84,4.84,0,0,0-1.8,1.1c-3.86,3.88-3.84,3.9-9.3,3.9Z" transform="translate(-25.29 -19.91)"/><path class="cls-1" d="M106.5,216.85a32.58,32.58,0,0,0,0,3.83,2.85,2.85,0,0,0,1,1.84c2.31,1.69,2.92,3.93,2.75,6.65-.09,1.43-.48,2.93.58,4.34a1.53,1.53,0,0,1-.6,2.25,2.54,2.54,0,0,1-2.13,0,2.28,2.28,0,0,1-.63-2.08c1.12-1.76.46-3.66.74-5.47a3.08,3.08,0,0,0-1.39-3.31c-2.36-1.48-2.33-3.78-2.29-6.13s0-4.57.11-6.85a3.58,3.58,0,0,1,1-1.67A5.07,5.07,0,0,1,110.4,208c2.37.2,4.7-2.59,4.62-5-.07-2.28-.21-4.56-.12-6.83a4.19,4.19,0,0,1,1-2.5c2.9-3,5.8-6.12,8.93-8.92a5.41,5.41,0,0,0,1.81-5.22c-.2-1.53.33-3.17-.77-4.63a2.09,2.09,0,0,1,.6-2,2.74,2.74,0,0,1,2.34.11,2.08,2.08,0,0,1,.48,2c-1.3,2-.78,4.1-.67,6.12a4.71,4.71,0,0,1-1.5,4.23c-2.87,2.68-5.48,5.66-8.41,8.27-1.7,1.51-1.94,3.23-1.88,5.23s.14,3.92.08,5.88a3.85,3.85,0,0,1-.71,1.81c-.31.49-.88.81-1.23,1.28a5.35,5.35,0,0,1-5.32,2.3c-1.52-.17-3.11,1.61-3.1,3.13,0,1.19,0,2.38,0,3.57Z" transform="translate(-25.29 -19.91)"/><path class="cls-1" d="M59.83,102.83a37.51,37.51,0,0,0-4.11,0,3,3,0,0,0-1.67,1c-1.27,1.43-2.56,2.4-4.7,2a21.21,21.21,0,0,0-4.77.1,4.07,4.07,0,0,0-1.5.49c-1,.51-2,.48-2.53-.46a2.77,2.77,0,0,1,.09-2.37c.57-.89,1.62-.8,2.56-.25a3.36,3.36,0,0,0,1.35.44,45.2,45.2,0,0,0,5.07.09,3.27,3.27,0,0,0,2.24-1c1.45-2,3.4-2.33,5.63-2.26,2.42.08,4.85.06,7.27.09a2.84,2.84,0,0,1,.41,0c1.25.24,4.64,4.3,4.48,5.59a3.63,3.63,0,0,0,1.63,3.76,4.12,4.12,0,0,0,1.86.85c3,.09,6,0,9,.08a3.56,3.56,0,0,1,2.14.91c2.91,2.78,5.75,5.64,8.55,8.53a3.19,3.19,0,0,0,2.55,1c1.56,0,3.11,0,4.66-.12a4.14,4.14,0,0,0,1.64-.48c1-.51,2-.61,2.54.35a2.82,2.82,0,0,1,0,2.36c-.53,1-1.58.81-2.54.37a4.25,4.25,0,0,0-1.53-.44c-2-.09-4.11,0-6.16-.19a3.45,3.45,0,0,1-2-.84c-2.93-2.82-5.76-5.76-8.68-8.59a2.92,2.92,0,0,0-1.78-.73c-2.92-.07-5.83,0-8.74-.08a6.16,6.16,0,0,1-2.52-1c-.49-.29-.81-.87-1.27-1.24a3.44,3.44,0,0,1-1.4-3.84,1.78,1.78,0,0,0-.31-1.4c-1.35-1.5-2.55-3.29-5-2.91a16.81,16.81,0,0,1-2.46,0Z" transform="translate(-25.29 -19.91)"/><path class="cls-1" d="M188.36,97.37c0-3.24-.05-6.49,0-9.73a3.08,3.08,0,0,1,.78-1.9q7.32-7.42,14.75-14.76a4,4,0,0,0,1.25-3.16c-.08-3.56,0-7.12,0-10.68,0-1.42.16-2.86-.71-4.22a2.21,2.21,0,0,1,.55-2.1,2.24,2.24,0,0,1,2.16-.07c.5.37.94,1.75.68,2.06-1.15,1.36-.73,2.9-.76,4.34,0,4.06.09,8.13,0,12.19a3.64,3.64,0,0,1-.94,2.25Q198.87,79,191.49,86.26a3.67,3.67,0,0,0-1.17,2.92c.05,3.61,0,7.22.05,10.83a2.56,2.56,0,0,1-1,2.39,4,4,0,0,0-.87.87,4.3,4.3,0,0,1-4.28,1.77c-1.84-.21-2.58,1.42-3.47,2.51a2.54,2.54,0,0,0,.24,3,1.78,1.78,0,0,1-.21,2.48,1.75,1.75,0,0,1-2.37.15c-.94-.63-.81-1.53-.58-2.45a11.33,11.33,0,0,0,.58-2.57,2.87,2.87,0,0,1,1-2.41,6,6,0,0,0,1.06-1.07,4.24,4.24,0,0,1,4.17-1.74c1.72.19,3.82-2.09,3.74-3.83,0-.6,0-1.19,0-1.79Z" transform="translate(-25.29 -19.91)"/><path class="cls-1" d="M164.88,75.41c0-2.64,0-5,0-7.38a2.53,2.53,0,0,1,.57-1.46A14.63,14.63,0,0,1,168.12,64a4.1,4.1,0,0,1,2.52-.58,4.51,4.51,0,0,0,4.81-4.73,40.53,40.53,0,0,1,0-5.17c0-1.23,0-2.36-1.11-3.18-.47-.35-.8-.89-1.27-1.24a3.49,3.49,0,0,1-1.32-3.25c.07-1.59,0-3.19-.07-4.79a2.85,2.85,0,0,0-.46-1.22c-.53-.9-.6-1.95.22-2.46a2.94,2.94,0,0,1,2.46-.07c.95.49.88,1.49.4,2.51a8.8,8.8,0,0,0-.64,2.71,9.6,9.6,0,0,0,0,2.73,4,4,0,0,0,1,2.37c3.09,2.13,2.87,5.21,2.72,8.33-.07,1.54,0,3.08,0,4.62a5.09,5.09,0,0,1,0,.55c-.15,1.43-3.93,4.6-5.31,4.24-2.68-.7-5.52,2.19-5.23,5a56.53,56.53,0,0,1,.07,7.25,2.75,2.75,0,0,1-.87,1.59q-4.66,4.75-9.41,9.42a2.7,2.7,0,0,0-.95,2.67c.18.83,0,1.74.07,2.59s.55,2,.62,3a3,3,0,0,1-.48,2.17,2.28,2.28,0,0,1-2.18.13,2.21,2.21,0,0,1-.72-2c1-1.81.73-3.73.72-5.59a5.85,5.85,0,0,1,1.94-4.92c2.62-2.34,5-5,7.52-7.41C164.36,78.11,165.53,77,164.88,75.41Z" transform="translate(-25.29 -19.91)"/><path class="cls-1" d="M143.88,99.52c-1.4,0-2.49-1.26-1.76-2.33,1.22-1.81.7-3.72.81-5.57.14-2.5,0-5-.05-7.52,0-4.88,0-9.76-.07-14.64a4.75,4.75,0,0,1,1.62-4c1.73-1.5,3.18-3.3,4.91-4.79a5,5,0,0,0,1.75-4.33c-.08-5.8.13-11.61-.12-17.4a6.12,6.12,0,0,1,2.38-5.4c1-.89,2.15-1.77,2.43-3.35.08-.45,1.31-1,1.95-.93a2.14,2.14,0,0,1,1.43,1.45c.1.59-.43,1.81-.83,1.87-1.54.24-2.25,1.45-3.32,2.25-1.88,1.41-2.11,3.21-2,5.41.15,5.4-.19,10.8.08,16.19a6.79,6.79,0,0,1-2.69,6.12c-1.19,1-2.09,2.34-3.34,3.24-2,1.46-2.24,3.48-2.25,5.65,0,3.83,0,7.66,0,11.49q0,6.21.19,12.43a3.68,3.68,0,0,0,.52,1.36A1.78,1.78,0,0,1,143.88,99.52Z" transform="translate(-25.29 -19.91)"/><path class="cls-1" d="M94.37,177c0,3.27,0,6.32,0,9.37a4.41,4.41,0,0,1-1.45,3.49C87.5,195.19,82.15,200.58,76.8,206a4.48,4.48,0,0,0-1,1.73,1.75,1.75,0,0,1-2,1.4,1.58,1.58,0,0,1-1.59-1.7,1.71,1.71,0,0,1,1.43-2,3.38,3.38,0,0,0,1.51-.79c5.49-5.45,10.94-10.93,16.42-16.39a2.52,2.52,0,0,0,.81-2.27c-.16-2,.05-4.1.05-6.15,0-1.68-.16-3.37-.07-5a5.05,5.05,0,0,1,.88-2.16c.32-.53.92-.88,1.32-1.38a3.92,3.92,0,0,1,3.56-1.56c1.77.11,3.72-2,3.72-3.77,0-.87.06-1.74,0-2.61a4.39,4.39,0,0,0-.44-1.63c-.48-1-.72-2.09.27-2.67a2.8,2.8,0,0,1,2.46,0c.85.56.78,1.61.18,2.55a2.92,2.92,0,0,0-.41,1.39c-.07,1.42,0,2.84-.1,4.25a3,3,0,0,1-.6,1.43c-.4.55-1,1-1.42,1.49a3.89,3.89,0,0,1-3.53,1.59c-1.94-.14-4,2.31-4,4.26C94.3,176.41,94.35,176.82,94.37,177Z" transform="translate(-25.29 -19.91)"/><path class="cls-1" d="M172.67,180.45c0-2.63-2.41-5.24-4.6-5.1a4.63,4.63,0,0,0-1.49.54c-.89.39-1.77.55-2.48-.28a1.8,1.8,0,0,1,0-2.5,2,2,0,0,1,2.48-.36,28.94,28.94,0,0,0,3.13.66,3.8,3.8,0,0,1,1.43.61c.6.47,1.07,1.12,1.66,1.62a4.22,4.22,0,0,1,1.8,4.11c-.26,1.88,2.17,4,4.12,4a75.58,75.58,0,0,0,9.16-.08c2.69-.32,4.28.82,6,2.58,4.83,5,9.79,9.87,14.73,14.76a6.21,6.21,0,0,0,2.06,1.19,1.86,1.86,0,0,1,1.35,2.1,1.62,1.62,0,0,1-1.73,1.57,1.8,1.8,0,0,1-2-1.47,3.88,3.88,0,0,0-.88-1.62q-8.07-8.13-16.21-16.18a3.26,3.26,0,0,0-2-.83c-4-.11-7.93-.08-11.9-.17a3.27,3.27,0,0,1-1.66-.69c-.58-.43-1-1.07-1.58-1.52A3,3,0,0,1,172.67,180.45Z" transform="translate(-25.29 -19.91)"/><path class="cls-1" d="M149.3,99.58a1.8,1.8,0,0,1-1.63-2.78,5.14,5.14,0,0,0,.6-3.13c0-2.88-.06-5.76,0-8.64a2.74,2.74,0,0,1,.83-1.62c2.38-2.46,4.87-4.84,7.23-7.33a3.44,3.44,0,0,0,.88-2.13c.11-4.42.07-8.85.15-13.28a2.56,2.56,0,0,1,.67-1.53c1.67-1.75,3.4-3.46,5.14-5.15a2.5,2.5,0,0,0,.87-2.54c-.21-1,0-2.1-.09-3.15-.08-.81-.51-1.6-.57-2.41s-.06-1.87.38-2.21a2.53,2.53,0,0,1,2.32-.11,2.21,2.21,0,0,1,.66,2.06c-1,1.62-.54,3.36-.76,5-.12,1,0,1.93-.07,2.87a2.34,2.34,0,0,1-.66,1.26c-1.66,1.72-3.41,3.34-5,5.09a3.63,3.63,0,0,0-.89,2.14c-.1,4.43-.06,8.86-.14,13.3a2.68,2.68,0,0,1-.79,1.61c-2.39,2.47-4.88,4.83-7.23,7.33a3.7,3.7,0,0,0-.94,2.25c-.11,2.88-.06,5.76,0,8.64a3.39,3.39,0,0,0,.55,1.48A1.86,1.86,0,0,1,149.3,99.58Z" transform="translate(-25.29 -19.91)"/><path class="cls-1" d="M134,182.06a9.34,9.34,0,0,0,0,2.05,6.47,6.47,0,0,1-3,7.27c-3.21,2.18-3.71,5.28-3.25,8.75a3.8,3.8,0,0,1-1.25,3.52c-1.21,1.16-2.74,2.08-3.08,4-.15.85-1.19,1.19-2.17.9a1.67,1.67,0,0,1-1.27-1.84,1.59,1.59,0,0,1,1.36-1.75c2-.42,4.44-3.4,4.45-5.37,0-1.6-.13-3.21,0-4.8a3.25,3.25,0,0,1,.8-1.89c1.49-1.61,3.15-3.07,4.61-4.7a3.86,3.86,0,0,0,.9-2.27c.11-2.83.09-5.66,0-8.5a4.6,4.6,0,0,0-.54-1.9c-.51-1-.61-1.93.32-2.69a1.74,1.74,0,0,1,2.38,0,2,2,0,0,1,.22,2.7,2.82,2.82,0,0,0-.39,1.26c0,1.74,0,3.47,0,5.21Z" transform="translate(-25.29 -19.91)"/><path class="cls-1" d="M174.92,91.83c0-1.06,0-2.07,0-3.07a2,2,0,0,1,.49-1.06c.37-.46.88-.81,1.24-1.28a5,5,0,0,1,4.1-2c2.59-.1,3.84-2.69,2.6-5-.47-.88-.61-2,.38-2.55a2.87,2.87,0,0,1,2.46.11c.79.51.73,1.51.22,2.45a4.7,4.7,0,0,0-.47,2.16,3.44,3.44,0,0,1-1,2.68c-1.37,1.42-2.67,2.67-4.91,2.33-.95-.15-3,2.23-3.11,3.24a2.62,2.62,0,0,0,0,.28c-.07,4.68-.06,4.69-3.55,7.91a2.52,2.52,0,0,1-1.43.57c-1.27.11-2.56,0-3.83.14a4.06,4.06,0,0,0-1.51.49c-.92.48-2,.54-2.43-.31a2.94,2.94,0,0,1,0-2.46c.48-.91,1.57-.79,2.43-.34a6.27,6.27,0,0,0,8.08-2.42A5.9,5.9,0,0,0,174.92,91.83Z" transform="translate(-25.29 -19.91)"/><path class="cls-1" d="M79.1,124c-1.06,0-2.11-.08-3.16,0-.77.08-1.52.52-2.29.57s-1.89.11-2.31-.35a2.37,2.37,0,0,1-.13-2.27,2.16,2.16,0,0,1,2.05-.65c2,1.15,4.11.79,6.15.71,5.19-.22,5.24-.35,8.78,3.38A4.81,4.81,0,0,0,92.27,127c2.14-.11,4.3,0,6.45,0a5.18,5.18,0,0,0,3.27-.63,2.45,2.45,0,0,1,2.24.46,2.4,2.4,0,0,1,.18,2.09,1.51,1.51,0,0,1-2.2.77c-2.06-1.27-4.27-.61-6.41-.74s-4.2,0-6.3,0a2.17,2.17,0,0,1-1.28-.61c-1.14-1.06-2.25-2.15-3.3-3.3a2.84,2.84,0,0,0-2.67-1,25.45,25.45,0,0,1-3.15,0Z" transform="translate(-25.29 -19.91)"/><path class="cls-1" d="M112.34,173.61c1.24-.33,2.47-.69,3.72-1,.86-.19,1.91-.31,2.26.68a2.62,2.62,0,0,1-.21,2.28,2.49,2.49,0,0,1-2.28.28c-2.22-1.05-5.58-.69-7.26,1-2,2-3.88,4.16-6,6-1.67,1.38-1.93,3-1.91,4.94,0,1.41.06,2.82.17,4.22a3.81,3.81,0,0,0,.47,1.5,1.82,1.82,0,0,1-.39,2.56,1.84,1.84,0,0,1-2.65-2.53c1.06-1.3.47-2.8.54-4.21s-.17-3-.07-4.5a3.24,3.24,0,0,1,.93-1.87c2.44-2.54,5-5,7.44-7.49C109.2,173.31,109.21,173.32,112.34,173.61Z" transform="translate(-25.29 -19.91)"/><path class="cls-1" d="M103.18,113.79c-1.32-.22-1.87-.69-2.16-1.68a4.15,4.15,0,0,0-1-1.72q-8.11-8.19-16.3-16.3a4.34,4.34,0,0,0-1.65-.86,1.75,1.75,0,0,1-1.34-2.07,1.57,1.57,0,0,1,1.6-1.55A1.77,1.77,0,0,1,84.39,91a4.86,4.86,0,0,0,1.06,1.83q7.81,7.9,15.72,15.73a6.83,6.83,0,0,0,2.25,1.38,1.7,1.7,0,0,1,1.16,2.27C104.39,112.8,103.67,113.26,103.18,113.79Z" transform="translate(-25.29 -19.91)"/><path class="cls-1" d="M141.06,163.81c-7.92,0-15.84-.12-23.76.07-2.93.07-4.13-1.66-4.09-4.27.06-4.64.17-9.28.16-13.93,0-5.23-.15-10.47-.15-15.71,0-4.23.13-8.47.16-12.7,0-1.73,0-3.46-.16-5.19a3.62,3.62,0,0,1,3.77-4c3.82,0,7.65,0,11.48,0s7.74.14,11.61.13c5.1,0,10.2-.11,15.31-.12,3.63,0,7.27.08,10.91.15a3.35,3.35,0,0,1,2.79,2.82c0,3.74.07,7.48,0,11.21,0,4-.15,8.09-.19,12.14,0,3.46,0,6.91,0,10.37,0,4.5.13,9,.18,13.5a29.83,29.83,0,0,1-.16,3.27c-.1,1-1.74,2.21-2.91,2.21h-25Zm6-50.94a28.69,28.69,0,0,0-9.43-.66c-2.47.51-2.48.51-2.46,3.05a10.1,10.1,0,0,1,.12,1.63,2.09,2.09,0,0,1-.68,1.31c-1.07.69-2.19,1.08-3.21-.2-.51-.64-1.19-1.14-1.75-1.74a1.06,1.06,0,0,0-1.65-.14,27.07,27.07,0,0,0-6.73,6.73,1.07,1.07,0,0,0,.13,1.65c.78.76,1.45,1.64,2.25,2.39,1,.89.1,1.63-.19,2.32a1.84,1.84,0,0,1-1.33.77c-1,.11-2.11,0-3.15.07a1.54,1.54,0,0,0-1.16.78,23.85,23.85,0,0,0,.09,11.14c1.17,0,2.21,0,3.26,0s1.8-.17,2.35.89.67,2.08-.41,3c-.62.53-1.11,1.21-1.71,1.77s-.55,1-.13,1.65A20.75,20.75,0,0,0,128,156a1.17,1.17,0,0,0,1.76-.2c.76-.79,1.63-1.47,2.4-2.24s1.54,0,2.22.24a1.68,1.68,0,0,1,.78,1.21,25.46,25.46,0,0,1,0,3.15c0,.76.15,1.35,1.09,1.39a76.62,76.62,0,0,0,8.28.33c2.7-.16,2.69-.41,2.69-3.24a8.14,8.14,0,0,1,0-1.64,1.88,1.88,0,0,1,.68-1.14c1-.62,2-1,3,.22.51.64,1.22,1.1,1.78,1.7a1.16,1.16,0,0,0,1.75.22,20.65,20.65,0,0,0,6.7-6.71c.42-.68.44-1.1-.12-1.65-.78-.77-1.45-1.66-2.25-2.41s-.18-1.55.13-2.2a1.94,1.94,0,0,1,1.3-.87,19.74,19.74,0,0,1,2.88,0,1.52,1.52,0,0,0,1.75-1.43,27.38,27.38,0,0,0-.09-9.47,1.23,1.23,0,0,0-1.47-1.17,21.51,21.51,0,0,1-3,.07,1.81,1.81,0,0,1-1.3-.85c-.29-.7-1.13-1.44-.21-2.33a19.63,19.63,0,0,0,2.22-2.43,1.7,1.7,0,0,0,.2-1.47,17.84,17.84,0,0,0-5.92-6.32c-2-1.29-1.56-1.32-3.22.33-.48.49-1.08.87-1.52,1.38-.93,1.08-1.81.28-2.54-.15a2.28,2.28,0,0,1-.84-1.6A36.5,36.5,0,0,1,147,112.87Z" transform="translate(-25.29 -19.91)"/><path class="cls-1" d="M147,112.87a36.5,36.5,0,0,0,0,3.77,2.28,2.28,0,0,0,.84,1.6c.73.43,1.61,1.23,2.54.15.44-.51,1-.89,1.52-1.38,1.66-1.65,1.21-1.62,3.22-.33a17.84,17.84,0,0,1,5.92,6.32,1.7,1.7,0,0,1-.2,1.47,19.63,19.63,0,0,1-2.22,2.43c-.92.89-.08,1.63.21,2.33a1.81,1.81,0,0,0,1.3.85,21.51,21.51,0,0,0,3-.07,1.23,1.23,0,0,1,1.47,1.17,27.38,27.38,0,0,1,.09,9.47,1.52,1.52,0,0,1-1.75,1.43,19.74,19.74,0,0,0-2.88,0,1.94,1.94,0,0,0-1.3.87c-.31.65-1,1.38-.13,2.2s1.47,1.64,2.25,2.41c.56.55.54,1,.12,1.65a20.65,20.65,0,0,1-6.7,6.71,1.16,1.16,0,0,1-1.75-.22c-.56-.6-1.27-1.06-1.78-1.7-.94-1.22-2-.84-3-.22a1.88,1.88,0,0,0-.68,1.14,8.14,8.14,0,0,0,0,1.64c0,2.83,0,3.08-2.69,3.24a76.62,76.62,0,0,1-8.28-.33c-.94,0-1.1-.63-1.09-1.39a25.46,25.46,0,0,0,0-3.15,1.68,1.68,0,0,0-.78-1.21c-.68-.24-1.36-1.11-2.22-.24s-1.64,1.45-2.4,2.24a1.17,1.17,0,0,1-1.76.2,20.75,20.75,0,0,1-6.7-6.71c-.42-.68-.45-1.1.13-1.65s1.09-1.24,1.71-1.77c1.08-.9,1-1.85.41-3s-1.43-.92-2.35-.89-2.09,0-3.26,0a23.85,23.85,0,0,1-.09-11.14,1.54,1.54,0,0,1,1.16-.78c1-.12,2.11,0,3.15-.07a1.84,1.84,0,0,0,1.33-.77c.29-.69,1.14-1.43.19-2.32-.8-.75-1.47-1.63-2.25-2.39a1.07,1.07,0,0,1-.13-1.65,27.07,27.07,0,0,1,6.73-6.73,1.06,1.06,0,0,1,1.65.14c.56.6,1.24,1.1,1.75,1.74,1,1.28,2.14.89,3.21.2a2.09,2.09,0,0,0,.68-1.31,10.1,10.1,0,0,0-.12-1.63c0-2.54,0-2.54,2.46-3.05A28.69,28.69,0,0,1,147,112.87ZM123.19,123.3c.51.55.68.77.88,1,1.9,1.68,3.28,3.46,1.29,6-.22.28-.19.77-.43,1a3.07,3.07,0,0,1-1.46.86c-1,.1-2-.11-3,0a1.3,1.3,0,0,0-1,.78,16.65,16.65,0,0,0,.13,7.22c1.3,0,2.57,0,3.84,0a1.38,1.38,0,0,1,1.58,1.12c.3,1,.92,2,1.26,3a1.69,1.69,0,0,1-.23,1.35c-.82,1-1.75,2-2.7,3a14,14,0,0,0,5.22,5.26,9.87,9.87,0,0,0,.73-.68c1.72-2,3.55-3.31,6.11-1.26.24.19.65.17.86.38a2.32,2.32,0,0,1,.81,1.17c.13,1.16,0,2.35.11,3.52a1,1,0,0,0,.67.71c1.54.14,3.09.25,4.64.25,2.41,0,2.87-.16,2.58-2.32-.38-2.7,1-3.44,3-4.3,1.41-.58,2.35-.83,3.34.51.4.54,1.06.88,1.51,1.39a.92.92,0,0,0,1.51.12c1.23-1.16,2.43-2.33,3.63-3.51.8-.79.8-1.49-.13-2.26-1.78-1.49-3-3.15-1.11-5.43a2.21,2.21,0,0,0,.38-1c.16-1,.8-1.22,1.68-1.21,1.26,0,2.53,0,3.91,0v-7.73h-2.28c-2.75,0-2.75,0-3.8-2.51a10,10,0,0,0-.68-1.35,1.34,1.34,0,0,1,.26-2,37.53,37.53,0,0,0,2.59-2.84,14,14,0,0,0-5.31-5.2c-.31.3-.56.5-.77.74-1.6,1.84-3.3,3.23-5.75,1.26a1.81,1.81,0,0,0-.88-.36c-1-.14-1.09-.8-1.09-1.59,0-1,0-2.09-.08-3.13,0-.29-.36-.78-.57-.78q-3.33-.09-6.66,0a1.09,1.09,0,0,0-.71.75,10.06,10.06,0,0,0,0,3c.23,1.09-.14,1.46-1.08,1.78-1.28.44-2.6,1.62-3.73,1.43s-2-1.7-3.12-2.53a1.32,1.32,0,0,0-1.24-.09C126.36,120.2,124.82,121.74,123.19,123.3Z" transform="translate(-25.29 -19.91)"/><path class="cls-1" d="M123.19,123.3c1.63-1.56,3.17-3.1,4.78-4.55a1.32,1.32,0,0,1,1.24.09c1.08.83,2,2.34,3.12,2.53s2.45-1,3.73-1.43c.94-.32,1.31-.69,1.08-1.78a10.06,10.06,0,0,1,0-3,1.09,1.09,0,0,1,.71-.75q3.33-.07,6.66,0c.21,0,.55.49.57.78.09,1,.08,2.08.08,3.13,0,.79.13,1.45,1.09,1.59a1.81,1.81,0,0,1,.88.36c2.45,2,4.15.58,5.75-1.26.21-.24.46-.44.77-.74a14,14,0,0,1,5.31,5.2,37.53,37.53,0,0,1-2.59,2.84,1.34,1.34,0,0,0-.26,2,10,10,0,0,1,.68,1.35c1.05,2.49,1.05,2.49,3.8,2.51h2.28v7.73c-1.38,0-2.65,0-3.91,0-.88,0-1.52.21-1.68,1.21a2.21,2.21,0,0,1-.38,1c-1.87,2.28-.67,3.94,1.11,5.43.93.77.93,1.47.13,2.26-1.2,1.18-2.4,2.35-3.63,3.51a.92.92,0,0,1-1.51-.12c-.45-.51-1.11-.85-1.51-1.39-1-1.34-1.93-1.09-3.34-.51-2.06.86-3.39,1.6-3,4.3.29,2.16-.17,2.31-2.58,2.32-1.55,0-3.1-.11-4.64-.25a1,1,0,0,1-.67-.71c-.08-1.17,0-2.36-.11-3.52a2.32,2.32,0,0,0-.81-1.17c-.21-.21-.62-.19-.86-.38-2.56-2-4.39-.71-6.11,1.26a9.87,9.87,0,0,1-.73.68,14,14,0,0,1-5.22-5.26c1-1,1.88-2,2.7-3a1.69,1.69,0,0,0,.23-1.35c-.34-1-1-2-1.26-3A1.38,1.38,0,0,0,123.5,140c-1.27,0-2.54,0-3.84,0a16.65,16.65,0,0,1-.13-7.22,1.3,1.3,0,0,1,1-.78c1-.07,2,.14,3,0a3.07,3.07,0,0,0,1.46-.86c.24-.22.21-.71.43-1,2-2.52.61-4.3-1.29-6C123.87,124.07,123.7,123.85,123.19,123.3Zm8.39,12.6a9.6,9.6,0,1,0,9.8-9.44A9.58,9.58,0,0,0,131.58,135.9Z" transform="translate(-25.29 -19.91)"/><path class="cls-1" d="M131.58,135.9a9.6,9.6,0,0,1,19.19.29,9.6,9.6,0,1,1-19.19-.29Zm17,.08a7.45,7.45,0,1,0-7.35,7.51A7.25,7.25,0,0,0,148.6,136Z" transform="translate(-25.29 -19.91)"/><path class="cls-1" d="M148.6,136a7.45,7.45,0,1,1-7.46-7.39A7.27,7.27,0,0,1,148.6,136Z" transform="translate(-25.29 -19.91)"/></svg>